<svg width="507" height="86" viewBox="0 0 507 86" fill="none" xmlns="http://www.w3.org/2000/svg">
<path d="M373.198 0.0859375C373.944 0.0859375 374.954 0.177785 376.206 0.347656C377.586 0.468804 378.986 0.767425 380.404 1.2373H380.405C381.871 1.66466 383.173 2.31116 384.302 3.18262H384.303C385.522 4.06303 386.271 5.24922 386.493 6.70312C386.557 6.96861 386.599 7.23704 386.599 7.49902V8.0127C386.599 8.77623 386.477 9.52383 386.089 10.1064C385.764 10.5942 385.239 11.0652 384.487 11.0654C383.883 11.0653 383.335 10.7938 382.997 10.2529C382.718 9.80589 382.638 9.26237 382.633 8.75C382.536 7.49329 382.148 6.63463 381.556 6.05566L381.409 5.9209L381.385 5.89746C380.68 5.19267 379.775 4.70593 378.63 4.45703L378.621 4.45508C377.441 4.1869 376.232 4.05273 374.994 4.05273C373.019 4.05279 370.586 4.4817 367.677 5.37695L367.665 5.37988C364.821 6.21627 361.796 7.41928 358.588 8.99512L358.582 8.99902L358.575 9.00195C355.375 10.5178 352.198 12.3447 349.045 14.4844L349.042 14.4863C345.958 16.5612 343.157 18.858 340.639 21.376L340.631 21.3848C338.127 23.8332 336.137 26.4076 334.65 29.1055C333.183 31.7691 332.465 34.4264 332.465 37.0889C332.465 40.7792 333.65 43.2698 335.86 44.8027L336.322 45.0898C338.672 46.4812 341.625 47.206 345.233 47.2061C348.992 47.2061 352.995 46.5428 357.247 45.2002L357.255 45.1982L357.263 45.1953C360.445 44.2461 363.154 43.0814 365.401 41.7119C367.685 40.2633 369.859 38.6199 371.923 36.7803L373.528 35.2979C375.114 33.8266 376.774 32.2628 378.511 30.6094C379.574 27.9861 381.022 26.1008 382.966 25.2295C384.714 24.4458 386.394 24.0303 387.993 24.0303C388.837 24.0303 389.611 24.0908 390.31 24.2178C390.947 24.3336 391.289 24.373 391.414 24.373H391.477L391.538 24.3809C391.844 24.4191 392.214 24.5089 392.527 24.7441C392.893 25.0185 393.098 25.4287 393.098 25.8857C393.098 26.3771 392.915 26.9517 392.346 27.2842C391.897 27.5456 391.388 27.5406 390.982 27.4814C389.648 27.4037 388.415 28 387.257 29.5605L387.252 29.5664L387.247 29.5732C386.014 31.1818 385.007 33.1319 384.238 35.4385L384.227 35.4697C383.49 37.4515 382.783 39.4912 382.103 41.5879C381.608 43.113 381.082 44.6374 380.528 46.1621C382.568 45.6712 384.211 45.4102 385.428 45.4102C385.805 45.4102 386.157 45.4332 386.467 45.4912C386.725 45.5396 387.02 45.6249 387.284 45.791L387.396 45.8672L387.565 46.0098C387.937 46.3594 388.138 46.8268 388.138 47.3516C388.138 47.6503 388.097 48.2301 387.639 48.623C387.131 49.0583 386.542 48.9348 386.217 48.8105C385.989 48.7353 385.728 48.6934 385.428 48.6934C384.802 48.6934 383.949 48.8155 382.848 49.0908L382.825 49.0967L382.802 49.1016C381.721 49.3178 380.764 49.6116 379.928 49.9775C379.114 50.3338 378.83 50.6745 378.745 50.8867C376.277 57.1416 373.656 62.4468 370.876 66.79C368.113 71.1065 365.302 74.6195 362.438 77.3115L362.438 77.3125C359.651 80.0421 356.939 82.0576 354.302 83.3164C351.713 84.5518 349.339 85.2099 347.201 85.21C344.955 85.2099 343.044 84.5804 341.568 83.2393L341.551 83.2236C340.121 81.862 339.444 80.0416 339.444 77.8809C339.444 76.1608 339.921 74.2813 340.812 72.2607L340.817 72.251C341.67 70.3763 342.983 68.4315 344.73 66.417L345.086 66.0127C349.025 61.4965 353.406 57.781 358.229 54.875L358.234 54.873C362.953 52.0646 367.997 49.7771 373.363 48.0078C374.092 46.0071 374.773 43.9825 375.404 41.9326C375.743 40.8025 376.082 39.6721 376.421 38.542C374.347 40.3737 372.139 42.2064 369.794 44.0352L369.785 44.041C366.366 46.6487 362.742 48.8524 358.914 50.6504L358.903 50.6562C355.014 52.4243 350.967 53.3115 346.773 53.3115C343.684 53.3115 340.733 52.7459 337.932 51.6133L337.908 51.6035C335.124 50.3931 332.843 48.57 331.083 46.1426C329.276 43.6497 328.413 40.4912 328.413 36.7471C328.413 27.573 332.511 19.3656 340.54 12.1484L341.418 11.3662C345.83 7.52352 350.615 4.71655 355.772 2.96094C361.297 1.0427 367.108 0.0859786 373.198 0.0859375ZM346.82 84.2031L347.201 84.21C346.945 84.21 346.695 84.2004 346.451 84.1826C346.573 84.1915 346.696 84.1987 346.82 84.2031ZM341.92 82.168C342.022 82.2817 342.128 82.3922 342.24 82.499C342.317 82.5684 342.395 82.635 342.475 82.7002C342.395 82.6351 342.317 82.5683 342.241 82.499C342.129 82.3921 342.022 82.2818 341.92 82.168ZM341.008 80.7617C341.052 80.8588 341.098 80.9541 341.146 81.0479L341.014 80.7734C341.012 80.7695 341.01 80.7657 341.008 80.7617ZM346.593 80.9385C346.622 80.9642 346.653 80.9879 346.684 81.0127C346.595 80.94 346.508 80.8641 346.424 80.7832L346.593 80.9385ZM371.926 52.083C368.093 53.4999 364.507 55.2822 361.168 57.4287C357.271 59.9337 353.787 63.0818 350.715 66.8799L350.714 66.8809C349.041 68.9438 347.843 70.8344 347.091 72.5527C346.388 74.2894 346.062 75.7752 346.062 77.0264C346.063 78.3929 346.414 79.3161 346.989 79.9336C347.636 80.6239 348.475 80.9863 349.596 80.9863C351.425 80.9862 353.291 80.2741 355.211 78.7275L355.218 78.7217L355.225 78.7168C357.19 77.1883 359.094 75.1787 360.933 72.6719L360.937 72.666L360.941 72.6602C362.847 70.1385 364.557 67.4471 366.071 64.5859L366.079 64.5723C367.663 61.6874 369.017 58.9498 370.144 56.3594C370.852 54.7302 371.442 53.304 371.926 52.083ZM340.788 80.1963C340.817 80.2841 340.848 80.3707 340.881 80.4561C340.848 80.3707 340.817 80.2841 340.788 80.1963ZM355.453 79.8057C355.336 79.8937 355.219 79.9788 355.103 80.0615C355.348 79.8879 355.593 79.7029 355.838 79.5059L355.453 79.8057ZM340.465 77.2939C340.451 77.4927 340.444 77.6883 340.444 77.8809C340.444 78.0022 340.447 78.122 340.452 78.2402C340.447 78.1221 340.445 78.0021 340.445 77.8809C340.445 77.6887 340.452 77.4933 340.465 77.2949V77.2939ZM45.8975 0.0859375C48.3866 0.0859464 50.631 0.263602 52.624 0.625977L53.4629 0.791992L53.4668 0.792969C56.4499 1.44926 58.8434 2.63447 60.5566 4.41113C62.2476 6.16482 63.1455 8.1723 63.1455 10.4072V10.4336C63.0829 12.7487 62.3573 14.8117 60.9648 16.584C59.6753 18.2407 58.0002 19.634 55.9629 20.7725C53.9634 21.8898 51.7935 22.8273 49.4561 23.5869L49.4482 23.5898L49.4414 23.5918C47.1755 24.289 44.9336 24.8132 42.7178 25.1631C41.7682 25.313 40.8686 25.4347 40.0205 25.5312C41.5608 26.5353 43.0888 27.6092 44.6035 28.7539C47.0624 30.5111 49.1015 32.4574 50.708 34.5967C52.4305 36.8125 53.3115 39.2771 53.3115 41.9639C53.3114 43.4812 52.9628 45.0319 52.2979 46.6094L52.2988 46.6104C51.6821 48.152 50.6826 49.7756 49.332 51.4785L49.3252 51.4873C47.4875 53.7537 44.9421 55.5254 41.7422 56.8291L41.7412 56.8281C38.5924 58.1341 35.2136 58.7842 31.6152 58.7842C28.2411 58.7841 25.3477 58.1334 22.9902 56.7686C21.0751 55.6597 19.7744 54.0624 19.0869 52.0293C19.0052 52.1408 18.9217 52.2544 18.8369 52.3701C18.2308 53.2762 17.5538 54.052 16.7998 54.6846C16.0523 55.4164 15.172 55.8769 14.1699 55.877C14.0161 55.8769 13.8193 55.8464 13.6631 55.8203C13.4768 55.7893 13.2366 55.7444 12.9473 55.6865L12.9375 55.6846L12.9268 55.6816C12.3792 55.56 11.8328 55.4081 11.2881 55.2266L11.2529 55.2148C10.9727 55.1097 10.693 54.9734 10.4561 54.7891C10.2179 54.6038 9.96439 54.3224 9.86426 53.9219L9.85352 53.8789L9.84668 53.835C9.63626 52.5013 9.96166 50.769 10.6582 48.7373L10.6641 48.7217C11.4173 46.6359 12.3697 44.356 13.5195 41.8838L13.5234 41.875L13.5283 41.8662C14.7282 39.4093 15.9569 36.9519 17.2139 34.4951L17.2217 34.4795C18.5351 32.0239 19.7354 29.8228 20.8223 27.8779C21.8996 25.893 22.6522 24.4145 23.0908 23.4277L23.1074 23.3906L23.127 23.3545C23.4505 22.7613 23.6367 22.3263 23.7227 22.0312C23.8291 21.6021 23.8594 21.365 23.8594 21.2676C23.8593 21.0307 23.819 20.9106 23.7939 20.8604L23.6484 20.5693L23.7021 20.248C23.848 19.3731 24.328 18.3294 25.0283 17.1621L25.0479 17.1309C25.827 15.9323 26.7786 14.7441 27.8975 13.5664C29.0393 12.3644 30.2802 11.3641 31.6201 10.5723C32.9676 9.71986 34.3122 9.23646 35.6348 9.23633C36.1345 9.23633 36.7566 9.38954 37.4336 9.6123C38.2566 9.80607 39.0234 10.1253 39.7295 10.5693H39.7305C40.6322 11.0953 41.2345 11.8801 41.4756 12.8867C41.5526 13.136 41.5947 13.3938 41.5947 13.6572C41.5947 13.8224 41.5735 14.1212 41.3848 14.4043C41.1481 14.7591 40.7721 14.9131 40.4238 14.9131C40.1808 14.913 39.91 14.8583 39.668 14.7979L39.5 14.7559L39.3564 14.6602C38.3918 14.6993 37.226 15.1832 35.8389 16.3135C34.3763 17.5053 32.8333 19.1231 31.2148 21.1865C29.6402 23.2673 28.0915 25.5504 26.5674 28.0342C25.0371 30.528 23.5615 33.0493 22.1445 35.5996L22.1455 35.6006C20.7847 38.0954 19.5968 40.4161 18.5801 42.5625L18.5752 42.5723C17.5623 44.6544 16.7767 46.3374 16.2158 47.625C15.7603 48.8804 15.5977 49.6041 15.5977 49.917C15.5977 49.9972 15.603 50.0598 15.6094 50.1074C15.9591 50.0746 16.5352 49.799 17.3389 48.8447L17.3408 48.8428C17.9648 48.1054 18.5312 47.4256 19.04 46.8037L19.0459 46.7969C19.3666 46.412 19.7157 46.0724 20.0977 45.8477C20.4517 45.6394 20.9006 45.4957 21.3867 45.585C22.3098 45.6076 23.2175 45.8976 23.7412 46.7354H23.7393C24.1196 47.2876 24.332 47.9267 24.4014 48.6201C24.4554 49.1602 24.509 49.646 24.5625 50.0781C24.8934 51.5078 25.6021 52.69 26.709 53.6484L26.9385 53.8389L26.9414 53.8418C28.1891 54.8496 29.9917 55.416 32.4707 55.416C35.1549 55.416 37.5321 54.9784 39.6172 54.123C41.7093 53.2647 43.3308 52.103 44.5205 50.6572C45.6923 49.1771 46.2655 47.5438 46.2656 45.7266C46.2656 44.4643 45.9627 43.12 45.3252 41.6855L45.3203 41.6729C44.6912 40.2051 43.6799 38.7035 42.2568 37.1709L42.2412 37.1533L42.2266 37.1357C41.0089 35.6967 39.65 34.3389 38.1504 33.0615C36.601 31.7417 35.2472 30.5312 34.0908 29.4326L34.0723 29.415L34.0547 29.3965C32.9439 28.2272 32.1555 27.0105 32.1553 25.8008C32.1553 24.5982 32.972 23.7376 34.0049 23.1494C34.9529 22.5583 35.89 22.1495 36.7471 22.1494C37.9407 22.1494 39.5036 21.9137 41.458 21.4111L41.4639 21.4092C43.4626 20.9095 45.5229 20.2417 47.6445 19.4053C49.7703 18.5102 51.6941 17.535 53.4131 16.4814L53.4258 16.4736C55.195 15.4231 56.4212 14.4144 57.1709 13.4648L57.1758 13.458L57.1816 13.4512C57.6389 12.8923 57.9851 12.3189 58.2295 11.7324L58.2373 11.7158L58.2451 11.6982C58.538 11.0636 58.666 10.4936 58.666 9.97949C58.666 9.23875 58.3503 8.52677 57.5508 7.82129L57.5273 7.80078L57.5049 7.7793C56.8099 7.08435 55.4876 6.47579 53.332 6.08887L53.2881 6.08105L53.2451 6.06934C52.699 5.92044 52.0267 5.81462 51.2188 5.76074C50.3886 5.7054 49.4984 5.67774 48.5488 5.67773C45.7037 5.67775 42.3902 5.95646 38.6045 6.52148L38.5977 6.52246L38.5898 6.52344C34.8126 7.03086 30.9756 7.79309 27.0791 8.80957C23.195 9.82282 19.5707 11.0871 16.2051 12.6016C12.8601 14.1068 10.1347 15.8483 8.00684 17.8125L8.00586 17.8135C5.98465 19.6752 4.90195 21.6849 4.64648 23.8486C4.55372 25.0592 4.85278 25.7958 5.35742 26.2646C6.05255 26.9101 6.87783 27.4124 7.84375 27.7686C8.92089 28.1106 9.81843 28.4648 10.5117 28.8389C10.7968 28.9684 11.079 29.1268 11.3066 29.3291C11.5399 29.5365 11.8348 29.9001 11.835 30.418C11.835 30.685 11.7567 30.9591 11.582 31.1973C11.4157 31.4238 11.2024 31.5636 11.0137 31.6494C10.6602 31.81 10.2515 31.8457 9.89355 31.8457C9.0583 31.8456 8.08757 31.6399 7.01172 31.2812C5.89073 30.9075 4.78499 30.3524 3.69531 29.626L3.66797 29.6074L3.64258 29.5879C2.57684 28.7729 1.69438 27.7971 1.00195 26.6641C0.255899 25.4432 -0.00307869 24.0456 0.168945 22.5254C0.167294 22.5098 0.164487 22.4874 0.160156 22.457C0.149386 22.3816 0.130785 22.2799 0.104492 22.1484L0.101562 22.1328L0.0996094 22.1162C0.0408011 21.7633 2.6784e-05 21.4398 0 21.1826V21.1357L0.00390625 21.0889C0.196745 19.0323 1.06532 17.1089 2.53906 15.3281L2.54492 15.3203L2.55176 15.3125C4.03028 13.5975 5.74143 12.0354 7.68066 10.625L7.69238 10.6162L8.42188 10.1074C10.1085 8.9451 11.693 7.95375 13.1738 7.13672L13.1807 7.13281L13.1875 7.12988C15.0803 6.12432 17.3361 5.21771 19.9443 4.40625C22.542 3.5412 25.3078 2.79266 28.2402 2.16016L28.2441 2.15918C31.2339 1.52673 34.253 1.03889 37.2998 0.693359C40.358 0.289446 43.2248 0.0859512 45.8975 0.0859375ZM242.687 13.3447C243.407 13.2793 244.148 13.3138 244.908 13.4404H244.907C245.738 13.57 246.574 13.8952 247.033 14.6475C247.332 15.0698 247.454 15.5576 247.454 16.0518C247.454 16.7173 247.306 17.3684 247.026 17.9971L247.007 18.0381C246.773 18.5062 246.522 18.9187 246.255 19.2637C245.928 19.8069 245.469 20.2248 244.882 20.4766L244.843 20.4932L244.812 20.502C244.825 20.4965 244.797 20.5057 244.733 20.5752C244.658 20.6576 244.557 20.8008 244.441 21.0312L244.437 21.04L244.432 21.0498C243.859 22.138 243.229 23.3116 242.543 24.5693C242.181 25.2325 241.811 25.88 241.433 26.5127C242.426 26.4171 243.369 26.3061 244.261 26.1787L244.267 26.1777C245.59 25.9973 247.075 25.9395 248.714 25.998H248.713C249.084 26.0022 249.446 26.0749 249.796 26.2021C250.005 26.2443 250.251 26.3173 250.473 26.4648C250.772 26.6643 251.046 27.0202 251.046 27.5107C251.046 27.8195 250.92 28.0542 250.814 28.1963C250.71 28.3366 250.59 28.4372 250.497 28.5049C250.313 28.6396 250.091 28.7484 249.88 28.8379C249.451 29.0192 248.853 29.2077 248.115 29.4072C247.394 29.6762 246.049 29.9397 244.205 30.2109L244.192 30.2119L244.181 30.2139C242.461 30.4223 240.694 30.6295 238.88 30.8379C238.4 31.7338 237.96 32.5113 237.557 33.166L237.548 33.1816L237.537 33.1963C237.084 33.8757 236.801 34.3461 236.659 34.6289C235.409 37.2437 234.272 39.6317 233.249 41.792C232.303 43.8536 231.816 45.4663 231.716 46.6641L231.709 46.7451L231.689 46.8242C231.652 46.9753 231.634 47.1219 231.634 47.2656V47.8643C231.634 48.9277 231.812 49.5529 232.027 49.8848C232.195 50.142 232.419 50.2851 232.857 50.2852C233.458 50.285 234.416 49.9454 235.801 49.0039C237.175 48.0127 238.585 46.8231 240.031 45.4326C241.499 43.9644 242.824 42.5833 244.006 41.2891L244.007 41.2881C244.094 41.1927 244.178 41.0965 244.261 41.0049C245.362 39.601 246.36 38.3212 247.251 37.1631L247.259 37.1543L247.266 37.1445C248.3 35.864 249.076 34.7814 249.609 33.8906V33.7539C249.609 33.3573 249.773 32.9474 249.937 32.6104C250.396 31.2389 250.863 30.0707 251.34 29.1162L251.345 29.1055L251.351 29.0957C251.889 28.078 252.622 27.1664 253.663 26.958L253.76 26.9385H254.019C254.183 26.8855 254.359 26.8526 254.543 26.8525C255.328 26.8525 256.068 27.0331 256.739 27.4062C257.122 27.6188 257.455 27.9119 257.688 28.3008C257.923 28.6912 258.023 29.1238 258.023 29.5635C258.023 30.3037 257.746 31.089 257.325 31.8799C256.978 32.6313 256.521 33.5431 255.959 34.6123L252.544 41.7822C251.595 43.8483 251.108 45.4645 251.008 46.6641L251.001 46.7451L250.981 46.8242C250.944 46.9753 250.926 47.1219 250.926 47.2656V47.8643C250.926 48.9278 251.104 49.553 251.319 49.8848C251.486 50.1419 251.71 50.285 252.148 50.2852C252.747 50.2852 253.704 49.947 255.084 49.0098C256.461 48.0173 257.874 46.826 259.323 45.4326C260.791 43.9644 262.116 42.5832 263.298 41.2891L263.299 41.2881C264.55 39.9227 265.36 38.9448 265.77 38.3301L265.824 38.248L265.895 38.1777C266.036 38.0363 266.21 37.8966 266.417 37.7939C266.736 37.4011 267.079 36.9996 267.447 36.5908C269.031 34.8314 270.872 33.1387 272.965 31.5107C275.064 29.8209 277.204 28.4415 279.384 27.3809C281.576 26.258 283.638 25.6554 285.551 25.6553C286.179 25.6553 286.777 25.7304 287.339 25.8896L287.578 25.9639L287.591 25.9678L287.604 25.9727C288.335 26.2387 288.987 26.6123 289.545 27.1006C290.281 27.7452 290.57 28.659 290.57 29.6484V30.1621C290.57 30.4769 290.484 30.7734 290.37 31.0381C290.335 31.2255 290.274 31.3985 290.226 31.5254C290.142 31.7427 290.025 31.9957 289.885 32.2783C289.629 32.9099 289.308 33.4899 288.917 34.0117L288.916 34.0107C288.737 34.2579 288.451 34.5821 288.026 34.7236C287.783 34.8046 287.512 34.8188 287.241 34.7393C287.006 34.6699 286.821 34.543 286.682 34.4131C286.245 34.0557 286.005 33.5553 286.005 32.9844C286.005 32.5677 286.088 32.1448 286.228 31.7266L286.24 31.6875L286.257 31.6494C286.4 31.3162 286.433 31.1144 286.433 31.0166C286.433 30.8214 286.381 30.6428 286.259 30.46L286.207 30.3838L286.175 30.3086C286.168 30.3082 286.159 30.3066 286.149 30.3066C285.329 30.3068 284.116 30.6879 282.452 31.6309C280.82 32.556 279.112 33.82 277.329 35.4355L277.327 35.4365C275.611 36.9871 274.059 38.7044 272.674 40.5889C271.305 42.451 270.366 44.286 269.834 46.0938L269.824 46.1289L269.812 46.1631C269.666 46.5501 269.572 46.9299 269.525 47.3037L269.524 47.3125L269.522 47.3213C269.472 47.6739 269.447 48.0258 269.447 48.377C269.447 49.3881 269.752 49.9459 270.2 50.2793C270.865 50.6669 271.692 50.8838 272.724 50.8838C273.932 50.8838 275.177 50.6996 276.461 50.3252L277.161 50.1123C280.616 49.0224 283.388 47.5816 285.51 45.8135L285.519 45.8057C287.899 43.8678 290.3 41.3596 292.717 38.2686L292.724 38.2598C292.875 38.0701 293.075 37.8621 293.329 37.7168C293.603 37.5602 293.994 37.4522 294.419 37.5938C294.474 37.612 294.512 37.6215 294.534 37.626C294.539 37.6268 294.542 37.6275 294.545 37.6279H294.693L294.847 37.6797C295.648 37.9468 295.787 38.7188 295.787 39.1416C295.787 39.4067 295.724 39.6641 295.65 39.8848C295.584 40.0837 295.51 40.2737 295.425 40.4434L295.386 40.5215L295.334 40.5918C292.84 43.9564 290.079 46.9214 287.053 49.4824L287.044 49.4902C283.931 52.0643 280.173 53.7255 275.804 54.4932L275.796 54.4951L275.631 53.5088L275.795 54.4951C274.716 54.675 273.634 54.7646 272.553 54.7646C269.883 54.7646 267.582 54.126 265.723 52.7793C263.879 51.4445 262.934 49.5262 262.839 47.1543C262.638 47.3573 262.435 47.5618 262.229 47.7656L261.65 48.3281C260.14 49.7808 258.649 51.0387 257.18 52.0967L257.179 52.0957C256.345 52.7315 255.324 53.2517 254.138 53.6699C252.943 54.1694 251.708 54.4228 250.438 54.4229C249.258 54.4228 248.154 54.1589 247.146 53.6211L247.12 53.6074C246.026 52.9822 245.31 51.8671 244.867 50.4766V50.4756C244.812 50.3087 244.756 50.1435 244.7 49.9766L244.649 49.8223V49.0615C244.649 48.0096 244.845 46.7859 245.208 45.4043C244.331 46.3683 243.382 47.3438 242.359 48.3281H242.358C240.848 49.7807 239.358 51.0387 237.889 52.0967L237.888 52.0957C237.048 52.7359 236.019 53.259 234.822 53.6787C233.635 54.1718 232.407 54.4229 231.146 54.4229C229.966 54.4228 228.862 54.1589 227.854 53.6211L227.828 53.6074C226.738 52.9841 226.023 51.8738 225.58 50.4893L225.409 49.9766L225.357 49.8223V49.0615C225.357 47.942 225.577 46.6276 225.986 45.1357C225.713 45.2758 225.408 45.3583 225.075 45.3584C224.684 45.3583 224.218 45.2402 223.873 44.8457C223.55 44.4766 223.477 44.0256 223.477 43.6738C223.477 43.1128 223.666 42.5936 224.053 42.1758C225.525 40.3066 226.827 38.6351 227.959 37.1631L227.967 37.1543L227.975 37.1445C229.111 35.7375 229.934 34.568 230.467 33.6309C230.48 33.5882 230.491 33.5537 230.499 33.5312C230.538 33.4286 230.586 33.322 230.637 33.2207C230.736 33.0219 230.875 32.7771 231.044 32.4941C231.186 32.2331 231.349 31.9315 231.531 31.5898H231.317C230.585 31.5897 229.974 31.2568 229.523 30.7168C228.929 30.003 228.958 29.1452 229.289 28.3945C229.317 28.3216 229.346 28.2496 229.378 28.1797C228.859 28.8155 228.227 29.3972 227.49 29.9268C227.199 30.1643 226.864 30.2207 226.623 30.2207C226.271 30.2207 225.82 30.1471 225.451 29.8242C225.057 29.4789 224.938 29.013 224.938 28.6221C224.939 27.9786 225.265 27.4545 225.659 27.0605L225.683 27.0371L225.708 27.0146C226.061 26.7055 226.354 26.3262 226.584 25.8662C226.816 25.4021 226.905 25.0132 226.905 24.6885C226.905 24.3734 226.821 24.3058 226.806 24.293C226.76 24.2545 226.587 24.1494 226.109 24.1494C225.013 24.1495 223.479 24.4531 221.466 25.124C219.544 25.7835 217.765 26.6337 216.126 27.6719L216.125 27.6709C214.255 28.8821 212.706 30.1921 211.466 31.5938C210.208 33.0158 209.749 34.0942 209.749 34.8652C209.749 35.2033 209.844 35.5359 210.06 35.8789C210.322 36.16 210.816 36.5434 211.607 37.0244L211.987 37.25L212.001 37.2578C212.553 37.5892 213.333 38.0351 214.346 38.5977C215.381 39.1157 216.284 39.6112 217.051 40.083H217.052C219.471 41.5582 221.038 43.3303 221.038 45.4697C221.038 47.0868 220.332 48.6453 219.096 50.1289L219.089 50.1377L219.082 50.1455C217.865 51.5447 216.304 52.7987 214.422 53.9199L214.423 53.9209C212.587 55.1051 210.632 56.0534 208.561 56.7637C206.481 57.4768 204.488 57.8438 202.592 57.8438C201.393 57.8437 200.335 57.6846 199.545 57.25C199.135 57.0243 198.779 56.7141 198.53 56.3037C198.28 55.8913 198.171 55.432 198.171 54.9619C198.171 53.677 198.854 52.4962 199.918 51.4326C200.733 50.6177 201.647 49.9556 202.658 49.4502C203.125 49.2167 203.524 49.0311 203.846 48.9023C204.006 48.8381 204.162 48.7823 204.306 48.7412C204.434 48.7044 204.619 48.6602 204.815 48.6602L205.022 48.6709C205.248 48.6958 205.518 48.7705 205.761 48.9648C206.082 49.2221 206.211 49.5688 206.237 49.876C206.29 50.1914 206.242 50.5411 206.032 50.8564C205.854 51.1237 205.608 51.2844 205.391 51.3877C204.888 51.6922 204.285 52.1358 203.58 52.7324L203.574 52.7373C203.044 53.1789 202.908 53.5476 202.908 53.8506C202.908 53.9816 202.928 54.0515 202.939 54.0811C202.949 54.1041 202.954 54.1091 202.958 54.1123C202.975 54.1263 203.109 54.2187 203.533 54.2188C204.636 54.2187 205.837 53.8841 207.149 53.1494L207.162 53.1416L207.177 53.1348C208.506 52.4433 209.735 51.5359 210.864 50.4072L210.881 50.3906C212.087 49.2391 213.027 48.1067 213.715 46.9961L213.721 46.9854C214.475 45.8003 214.762 44.9094 214.762 44.2725C214.762 43.7843 214.6 43.3197 214.219 42.8535C213.842 42.3927 212.944 41.7289 211.355 40.8779L211.342 40.8701L211.327 40.8623C210.226 40.2248 209.153 39.5573 208.109 38.8613L208.098 38.8545L208.087 38.8467C207.483 38.4201 206.954 37.9367 206.499 37.4014C206.195 37.8938 205.857 38.4278 205.483 39.002C205.126 39.568 204.731 40.1468 204.302 40.7383C203.734 41.6524 202.941 42.7071 201.938 43.8926L201.937 43.8916C200.714 45.3465 199.323 46.8259 197.763 48.3281H197.762C196.251 49.7807 194.761 51.0387 193.292 52.0967L193.291 52.0957C192.452 52.7359 191.422 53.259 190.226 53.6787C189.038 54.1718 187.811 54.4229 186.55 54.4229C185.37 54.4228 184.265 54.1589 183.257 53.6211L183.231 53.6074C182.141 52.9841 181.426 51.8738 180.983 50.4893L180.812 49.9766L180.761 49.8223V49.0615C180.761 48.0096 180.956 46.7859 181.319 45.4043C180.442 46.3683 179.493 47.3438 178.471 48.3281H178.47C176.959 49.7807 175.469 51.0387 174 52.0967L173.999 52.0957C173.16 52.7361 172.13 53.2589 170.933 53.6787C169.745 54.1715 168.518 54.4229 167.258 54.4229C166.078 54.4228 164.974 54.1588 163.966 53.6211L163.952 53.6143L163.94 53.6074C162.85 52.9841 162.134 51.8739 161.691 50.4893C161.634 50.3183 161.577 50.1475 161.521 49.9766L161.469 49.8223V49.0615C161.469 47.9882 161.671 46.7357 162.049 45.3193C161.167 46.3058 160.223 47.3052 159.214 48.3145L159.207 48.3213L159.199 48.3281C157.688 49.7807 156.199 51.0387 154.729 52.0967L154.729 52.0957C153.887 52.7377 152.854 53.2623 151.653 53.6826L151.652 53.6816C150.417 54.1704 149.165 54.4228 147.902 54.4229C146.723 54.4228 145.636 54.1593 144.67 53.6074C143.576 52.9822 142.859 51.8671 142.417 50.4766L142.4 50.4238L142.39 50.3691C142.342 50.133 142.268 49.8604 142.164 49.5488L142.136 49.4629L142.123 49.374C142.059 48.9286 142.027 48.482 142.027 48.0352C142.027 47.0593 142.112 46.0123 142.272 44.8955C141.408 46.1585 140.435 47.4466 139.352 48.7578C138.27 50.0794 137.061 51.1996 135.724 52.1113L135.715 52.1172C134.362 53.0188 132.888 53.4824 131.312 53.4824C130.362 53.4824 129.291 53.2511 128.12 52.834L127.604 52.6406L127.598 52.6377C126.2 52.066 125.099 51.2358 124.392 50.1045C123.737 49.0574 123.421 47.8075 123.388 46.4043C122.777 47.0457 122.141 47.6882 121.476 48.3281C119.965 49.7808 118.474 51.0387 117.005 52.0967L117.004 52.0957C116.162 52.7376 115.13 53.2623 113.929 53.6826L113.928 53.6816C112.692 54.1704 111.441 54.4229 110.178 54.4229C109.045 54.4228 107.971 54.1544 106.971 53.6211L106.945 53.6074C105.851 52.9822 105.135 51.8671 104.692 50.4766V50.4756C104.475 49.8164 104.389 48.9851 104.389 48.0352C104.389 46.6922 104.572 45.2211 104.926 43.6279C104.94 43.5654 104.954 43.5032 104.968 43.4414C104.471 43.9997 103.917 44.614 103.308 45.2842L103.309 45.2852C102.202 46.5086 100.953 47.7571 99.5654 49.0293L99.5635 49.0303C98.2007 50.2745 96.7709 51.3186 95.2734 52.1572C93.7279 53.0227 92.1634 53.4824 90.5938 53.4824C89.4918 53.4823 88.3692 53.1723 87.2393 52.6074L87.2197 52.5977L87.2012 52.5869C86.0657 51.9561 85.1266 51.1535 84.4062 50.1738C83.7515 49.3006 83.2998 48.3832 83.0791 47.4268C80.8444 49.5096 78.3625 51.2634 75.6338 52.6846L75.627 52.6885C72.8117 54.126 69.8623 54.8506 66.791 54.8506C64.0648 54.8505 61.6487 54.2123 59.584 52.8984C57.3817 51.4969 56.2988 49.334 56.2988 46.5811C56.2989 45.0819 56.7509 43.3445 57.5752 41.4014L57.5791 41.3936C58.2103 39.9419 59.344 38.3386 60.917 36.5908C62.3025 35.0513 63.885 33.5627 65.6611 32.124L66.4336 31.5107C68.5333 29.8208 70.6733 28.4415 72.8535 27.3809C75.0453 26.2581 77.1077 25.6553 79.0205 25.6553C79.6485 25.6553 80.247 25.7303 80.8086 25.8896L81.0469 25.9639L81.0557 25.9658L81.0635 25.9688C82.1967 26.3687 83.0891 27.0474 83.5781 28.0625C84.0512 28.9411 84.2958 29.8731 84.2959 30.8457C84.2959 31.6912 84.1662 32.511 83.9033 33.2998C83.6518 34.0544 83.3295 34.7367 82.9307 35.335C81.8085 37.0179 80.2105 38.4798 78.1777 39.7354C76.2397 40.9675 74.2362 41.9389 72.1689 42.6484L72.1699 42.6494C70.1961 43.346 68.5108 43.7756 67.1387 43.9004L67.0928 43.9043H66.877C66.4364 43.9043 65.9368 43.8423 65.5186 43.585C65.1471 43.3563 64.9107 43.0175 64.8145 42.6299C64.1489 43.7858 63.6463 44.9412 63.3027 46.0967L63.293 46.1299L63.2803 46.1631C63.1352 46.55 63.0409 46.93 62.9941 47.3037L62.9922 47.3213C62.9418 47.6739 62.917 48.0258 62.917 48.377C62.917 49.5221 63.2596 50.1148 63.7402 50.4424C64.4667 50.8935 65.356 51.1396 66.4492 51.1396C68.181 51.1396 69.9876 50.7741 71.875 50.0215C73.8028 49.1949 75.6806 48.1465 77.5078 46.873C79.3491 45.5897 81.0188 44.2254 82.5176 42.7822C83.4203 41.9117 84.2341 41.062 84.9629 40.2363C86.0372 38.6858 87.3457 37.1927 88.8857 35.7588L89.5459 35.1553C91.0955 33.7651 92.7134 32.5065 94.4004 31.3818C96.3652 30.053 98.2262 28.948 99.9814 28.0703C101.543 27.2646 102.885 26.6773 103.99 26.334L104.45 26.2012C105.691 25.833 107.062 25.6553 108.553 25.6553C109.436 25.6553 110.34 25.78 111.259 26.0225C112.189 26.2123 113.015 26.5621 113.708 27.0918C114.264 27.3862 114.733 27.7881 115.097 28.2979C115.493 28.853 115.71 29.4816 115.71 30.1621C115.71 30.4496 115.663 31.0526 115.142 31.4248C114.592 31.8171 113.991 31.6258 113.718 31.5088L113.444 31.3916L113.279 31.1445C112.967 30.6754 112.562 30.4002 112.021 30.2842L111.979 30.2754L111.937 30.2627C111.293 30.0649 110.622 29.9648 109.921 29.9648C107.857 29.965 105.513 30.6369 102.872 32.0674C100.204 33.5125 97.821 35.2044 95.7188 37.1406L95.7002 37.1572L95.6816 37.1729C95.07 37.6826 94.1759 38.6212 92.9863 40.0371C91.8838 41.3602 90.8605 42.827 89.917 44.4365C89.0037 45.9947 88.6006 47.3299 88.6006 48.4629C88.6006 48.9441 88.711 49.3511 88.9219 49.707L89.0186 49.8564L89.0449 49.8936L89.0674 49.9336C89.0971 49.9856 89.1173 49.995 89.123 49.998C89.1344 50.0041 89.1855 50.0283 89.3115 50.0283C89.8037 50.0282 90.6511 49.742 91.9297 48.9082L91.9375 48.9023L91.9453 48.8975C93.2635 48.0736 94.6175 47.08 96.0068 45.9141C97.4181 44.6721 98.6853 43.4905 99.8076 42.3682L99.8154 42.3594L99.8242 42.3506C101.021 41.2108 101.869 40.3915 102.373 39.8877C102.644 39.6166 103.174 39.0587 103.974 38.2021L103.976 38.2012C104.832 37.288 105.744 36.317 106.714 35.29C107.687 34.2592 108.55 33.3688 109.3 32.6191L109.312 32.6055L109.326 32.5928C109.737 32.2112 110.1 31.9019 110.405 31.6816C110.557 31.5723 110.715 31.4691 110.874 31.3896C111.01 31.3218 111.254 31.214 111.546 31.2139C111.966 31.2139 112.519 31.3284 113.133 31.4941C113.793 31.6088 114.397 31.8008 114.927 32.0889L115.155 32.2217L115.289 32.3115C115.602 32.5371 115.898 32.868 116.006 33.3359C116.129 33.8707 115.954 34.3522 115.729 34.7109L115.719 34.7285L115.707 34.7461C114.271 36.8454 113.111 39.0517 112.229 41.3662C111.382 43.6795 110.899 45.449 110.742 46.7051L110.735 46.7656L110.721 46.8242C110.683 46.9753 110.665 47.1219 110.665 47.2656V47.8643C110.665 48.9183 110.855 49.531 111.083 49.8564C111.265 50.1167 111.533 50.2851 112.06 50.2852C112.577 50.285 113.493 49.9431 114.896 48.9336C116.277 47.9392 117.695 46.7455 119.148 45.3477C120.617 43.9352 121.942 42.582 123.122 41.2891L123.124 41.2881C124.03 40.2992 124.703 39.5124 125.162 38.9209C125.818 37.4162 126.593 35.9927 127.486 34.6523L127.493 34.6436L127.499 34.6338C127.888 34.0775 128.337 33.405 128.846 32.6143C129.381 31.7811 129.926 31.0517 130.482 30.4336C130.742 30.1184 130.986 29.8484 131.211 29.6406C131.396 29.4702 131.678 29.2353 132.021 29.1279L132.33 29.0332C133.059 28.829 133.864 28.7344 134.732 28.7344C135.715 28.7344 136.599 28.843 137.264 29.1582L137.265 29.1572C137.691 29.3399 138.469 29.7754 138.469 30.6748C138.469 31.0754 138.313 31.4243 138.149 31.6904C137.98 31.9656 137.752 32.2347 137.492 32.4941L137.476 32.5107L137.457 32.5264C136.857 33.0717 136.022 33.9065 134.944 35.041C133.91 36.1301 132.864 37.4484 131.809 39.002C130.829 40.5269 130.007 42.2221 129.347 44.0918L129.345 44.0996L129.342 44.1064C128.796 45.5791 128.549 46.7965 128.549 47.7783C128.549 48.669 128.732 49.1522 128.929 49.3984C129.092 49.602 129.366 49.7714 129.943 49.7715C131.027 49.7715 132.276 49.3201 133.71 48.2578C135.182 47.1673 136.611 45.8225 137.994 44.2178L138.001 44.2109L138.007 44.2031C139.468 42.5738 140.756 40.9777 141.872 39.415L141.876 39.4102C143.069 37.7621 143.97 36.467 144.583 35.5195L144.595 35.5L144.608 35.4814C145.147 34.7272 145.753 33.7381 146.426 32.5049L146.434 32.4902L146.442 32.4756C147.181 31.2253 147.892 30.0033 148.573 28.8105C149.261 27.6072 149.821 26.6909 150.247 26.082L150.546 25.6553H151.066C151.569 25.6553 152.24 25.7576 153.035 25.9268C153.955 26.0535 154.78 26.3076 155.479 26.7188H155.479C155.89 26.9428 156.319 27.2814 156.527 27.8018C156.754 28.3685 156.633 28.9232 156.388 29.3643L156.38 29.3789L156.371 29.3936C156.025 29.97 155.481 30.8589 154.739 32.0566C154.06 33.2444 153.353 34.4592 152.618 35.7021L152.619 35.7031C151.941 36.8907 151.405 37.848 151.012 38.5771C149.699 41.0928 148.85 43.8027 148.466 46.7119L148.459 46.7686L148.445 46.8242C148.408 46.9753 148.389 47.1219 148.389 47.2656V47.8643C148.389 48.9229 148.573 49.5416 148.795 49.8701C148.969 50.1285 149.215 50.2851 149.698 50.2852C150.215 50.2851 151.132 49.9432 152.534 48.9336C153.915 47.9393 155.333 46.7454 156.787 45.3477L156.794 45.3408L156.801 45.335C158.323 43.9254 159.671 42.5764 160.847 41.2891L160.848 41.2881C160.878 41.2545 160.908 41.2196 160.938 41.1865C162.097 39.7114 163.142 38.3709 164.071 37.1631L164.078 37.1543L164.086 37.1445C165.222 35.7375 166.045 34.568 166.578 33.6309C166.591 33.5882 166.602 33.5537 166.61 33.5312C166.649 33.4286 166.698 33.322 166.749 33.2207C166.85 33.0192 166.99 32.7702 167.162 32.4824C167.303 32.2241 167.463 31.9263 167.643 31.5898H167.43C166.697 31.5898 166.085 31.2569 165.635 30.7168C165.038 30.0009 165.069 29.14 165.403 28.3877C165.61 27.848 165.942 27.3865 166.413 27.0439C166.897 26.6922 167.471 26.5036 168.082 26.4316C168.918 26.3333 169.675 26.2581 170.35 26.2012C170.374 26.1865 170.398 26.171 170.423 26.1582C171.034 25.0338 171.623 23.9337 172.188 22.8564C172.813 21.6623 173.324 20.6703 173.719 19.8799L173.73 19.8555L173.744 19.8311C173.971 19.4347 174.136 19.1382 174.243 18.9375C174.264 18.8977 174.282 18.8624 174.297 18.833V18.7578L174.449 18.5146C175.02 17.6018 175.489 16.8476 175.857 16.252L176.663 14.9385C177.111 14.1348 177.78 13.543 178.692 13.3604L178.745 13.3496L178.798 13.3447C179.518 13.2793 180.261 13.3138 181.021 13.4404H181.02C181.85 13.5701 182.685 13.8955 183.145 14.6475C183.443 15.0698 183.566 15.5575 183.566 16.0518C183.566 16.7173 183.417 17.3684 183.138 17.9971L183.129 18.0176L183.118 18.0381C182.884 18.5062 182.634 18.9196 182.367 19.2646C182.04 19.8078 181.58 20.2249 180.993 20.4766L180.955 20.4932L180.925 20.502C180.936 20.497 180.908 20.5067 180.845 20.5752C180.769 20.6576 180.668 20.8008 180.553 21.0312L180.548 21.04L180.543 21.0498C179.97 22.1379 179.341 23.3116 178.655 24.5693C178.293 25.2326 177.922 25.8799 177.544 26.5127C178.537 26.4171 179.48 26.3061 180.372 26.1787L180.379 26.1777C181.702 25.9973 183.186 25.9395 184.825 25.998H184.824C185.195 26.0021 185.557 26.0743 185.906 26.2012C186.116 26.2432 186.362 26.317 186.584 26.4648C186.883 26.6643 187.158 27.0202 187.158 27.5107C187.158 27.8196 187.031 28.0542 186.926 28.1963C186.822 28.3366 186.701 28.4372 186.608 28.5049C186.424 28.6396 186.203 28.7484 185.991 28.8379C185.563 29.0192 184.965 29.2077 184.227 29.4072C183.506 29.6762 182.161 29.9398 180.317 30.2109L180.305 30.2119L180.292 30.2139C178.573 30.4223 176.805 30.6295 174.991 30.8379C174.511 31.7337 174.072 32.5114 173.669 33.166L173.659 33.1816L173.649 33.1963C173.196 33.8757 172.912 34.3461 172.771 34.6289C171.52 37.2437 170.384 39.6317 169.36 41.792C168.414 43.8536 167.927 45.4663 167.827 46.6641L167.82 46.7451L167.801 46.8242C167.763 46.9753 167.745 47.1219 167.745 47.2656V47.8643C167.745 48.928 167.924 49.553 168.14 49.8848C168.307 50.1419 168.53 50.2851 168.969 50.2852C169.569 50.2851 170.527 49.9454 171.912 49.0039C173.283 48.0154 174.689 46.8299 176.131 45.4443C177.603 43.9717 178.932 42.5867 180.117 41.2891L180.118 41.2881C180.208 41.1899 180.294 41.0913 180.38 40.9971C181.479 39.5965 182.474 38.3189 183.363 37.1631L183.37 37.1543L183.378 37.1445C184.412 35.8642 185.188 34.7813 185.721 33.8906V33.7539C185.721 33.355 185.886 32.9427 186.051 32.6045C186.509 31.2357 186.975 30.0693 187.451 29.1162L187.457 29.1055L187.462 29.0957C188.001 28.078 188.733 27.1665 189.774 26.958L189.872 26.9385H190.13C190.295 26.8854 190.471 26.8526 190.655 26.8525L190.947 26.8613C191.624 26.9009 192.263 27.0799 192.851 27.4062C193.233 27.6188 193.566 27.9119 193.8 28.3008C194.034 28.6912 194.135 29.1237 194.135 29.5635C194.135 30.3052 193.857 31.0923 193.435 31.8848C193.087 32.6353 192.631 33.5454 192.07 34.6123L188.656 41.7822C188.655 41.7854 188.654 41.7889 188.652 41.792C187.706 43.8536 187.219 45.4663 187.119 46.6641L187.112 46.7451L187.093 46.8242C187.055 46.9753 187.037 47.1219 187.037 47.2656V47.8643C187.037 48.928 187.216 49.553 187.432 49.8848C187.599 50.1419 187.822 50.2851 188.261 50.2852C188.861 50.285 189.819 49.9454 191.204 49.0039C192.578 48.0127 193.988 46.8231 195.435 45.4326C196.902 43.9644 198.228 42.5833 199.409 41.2891L199.41 41.2881C200.662 39.9228 201.471 38.9448 201.881 38.3301L201.936 38.248L202.006 38.1777C202.046 38.1376 202.089 38.0976 202.135 38.0586C202.726 37.2002 203.205 36.3913 203.572 35.6289C204.286 34.1459 204.771 33.0392 205.043 32.293C205.324 30.4589 206.188 28.7563 207.573 27.1904C208.963 25.6196 210.646 24.2697 212.612 23.1377C214.548 21.9662 216.522 21.0529 218.533 20.4023L218.541 20.3994L219.305 20.1709C221.066 19.6723 222.681 19.4131 224.143 19.4131C225.807 19.4131 227.326 19.7217 228.678 20.3652C229.406 20.712 230.011 21.1921 230.431 21.8311C230.852 22.4735 231.044 23.2127 231.044 24.0049C231.044 24.8777 230.79 25.7656 230.348 26.6553L230.349 26.6562C230.245 26.8749 230.129 27.0876 230.003 27.2959C230.096 27.2065 230.195 27.1217 230.302 27.0439C230.785 26.6922 231.359 26.5036 231.971 26.4316C232.807 26.3333 233.563 26.2581 234.238 26.2012C234.263 26.1865 234.287 26.171 234.312 26.1582C234.923 25.0338 235.512 23.9337 236.076 22.8564C236.702 21.6623 237.211 20.6703 237.606 19.8799L237.619 19.8555L237.633 19.8311C237.859 19.4346 238.025 19.1382 238.132 18.9375C238.153 18.8973 238.17 18.8616 238.186 18.832V18.7578L238.337 18.5146C238.907 17.6017 239.377 16.8476 239.746 16.252L240.552 14.9385C241 14.1348 241.669 13.5429 242.581 13.3604L242.634 13.3496L242.687 13.3447ZM40.2217 56.3438C39.4517 56.6182 38.6676 56.8538 37.8691 57.0498H37.8701C38.2692 56.9518 38.6647 56.8441 39.0566 56.7266C39.4486 56.609 39.8368 56.4809 40.2217 56.3438ZM41.3652 55.9033L41.8994 55.6787C41.9135 55.6726 41.9274 55.6663 41.9414 55.6602C41.7521 55.7429 41.56 55.824 41.3652 55.9033ZM199.18 54.7568C199.179 54.7679 199.177 54.779 199.177 54.79C199.173 54.8474 199.171 54.9048 199.171 54.9619C199.171 55.0385 199.175 55.1127 199.184 55.1846C199.175 55.1128 199.172 55.0383 199.172 54.9619C199.172 54.8937 199.174 54.8253 199.18 54.7568ZM205.124 55.0273C205.009 55.0544 204.894 55.0803 204.779 55.1016C204.863 55.086 204.948 55.0695 205.032 55.0508C205.063 55.044 205.093 55.0346 205.124 55.0273ZM205.351 54.9717C205.393 54.9604 205.435 54.9486 205.478 54.9365C205.435 54.9485 205.393 54.9604 205.351 54.9717ZM199.194 54.6182C199.191 54.6445 199.189 54.671 199.187 54.6973C199.191 54.6511 199.197 54.6049 199.204 54.5586C199.201 54.5785 199.197 54.5983 199.194 54.6182ZM423.129 0C424.641 7.566e-05 425.984 0.433265 427.095 1.33594C428.346 2.24718 428.918 3.62465 428.918 5.27637C428.918 5.9668 428.781 6.71539 428.539 7.50977C428.34 8.34952 427.99 9.19628 427.503 10.0479L427.502 10.0508C423.986 16.1611 419.776 21.8089 414.879 26.9951L414.88 26.9961C410.135 32.0803 405.11 36.8029 399.807 41.165C399.606 41.8975 399.407 42.5704 399.204 43.1816C399.044 43.822 398.905 44.3438 398.792 44.7441C398.752 44.9503 398.729 45.1909 398.729 45.4697V46.3252C398.73 47.5833 398.939 48.6372 399.327 49.5107C399.495 49.8878 399.691 50.1083 399.888 50.2393C400.082 50.3685 400.344 50.456 400.723 50.4561C401.458 50.4561 402.51 50.0969 403.93 49.1699C405.419 48.1767 406.918 46.9847 408.424 45.5908C409.945 44.1258 411.322 42.7197 412.557 41.373C412.709 41.2073 412.852 41.0442 412.992 40.8887C413.02 40.8433 413.047 40.7973 413.075 40.752L413.081 40.7412L413.088 40.7314C414.221 39.0022 415.644 37.3451 417.348 35.7588L418.007 35.1553C419.557 33.7649 421.175 32.5066 422.862 31.3818C424.827 30.053 426.688 28.9479 428.443 28.0703C430.005 27.2648 431.346 26.6773 432.451 26.334L432.912 26.2012C434.153 25.833 435.524 25.6553 437.015 25.6553C437.897 25.6553 438.799 25.7806 439.717 26.0225C440.649 26.2122 441.476 26.5614 442.17 27.0918C442.726 27.3862 443.195 27.7882 443.559 28.2979C443.955 28.853 444.172 29.4817 444.172 30.1621C444.172 30.4496 444.125 31.0526 443.604 31.4248C443.054 31.8172 442.453 31.6259 442.18 31.5088L441.906 31.3916L441.741 31.1445C441.428 30.6754 441.024 30.4002 440.482 30.2842L440.439 30.2754L440.397 30.2627C439.755 30.0649 439.084 29.9648 438.383 29.9648C436.318 29.9649 433.975 30.6369 431.334 32.0674C428.666 33.5125 426.282 35.2044 424.18 37.1406L424.162 37.1572L424.143 37.1729C423.531 37.6826 422.638 38.6214 421.448 40.0371C420.346 41.3602 419.322 42.827 418.379 44.4365C417.466 45.9947 417.062 47.3298 417.062 48.4629C417.063 48.9442 417.173 49.3511 417.384 49.707L417.48 49.8564L417.507 49.8936L417.529 49.9336C417.559 49.9847 417.578 49.9948 417.584 49.998C417.595 50.0039 417.646 50.0282 417.772 50.0283C418.265 50.0283 419.112 49.742 420.391 48.9082L420.399 48.9023L420.407 48.8975C421.725 48.0736 423.079 47.08 424.469 45.9141C425.88 44.6722 427.146 43.4904 428.269 42.3682L428.286 42.3506C429.483 41.2109 430.33 40.3914 430.834 39.8877C431.105 39.6168 431.636 39.059 432.436 38.2021L432.437 38.2012C433.293 37.288 434.206 36.317 435.176 35.29C436.149 34.2592 437.012 33.3688 437.762 32.6191L437.774 32.6055L437.788 32.5928C438.199 32.2114 438.561 31.9019 438.866 31.6816C439.018 31.5721 439.177 31.4691 439.336 31.3896C439.472 31.3218 439.716 31.2139 440.008 31.2139L440.176 31.2197C440.571 31.2443 441.061 31.3493 441.597 31.4941C442.256 31.6089 442.86 31.801 443.389 32.0889L443.616 32.2217L443.751 32.3115C444.063 32.5371 444.359 32.8681 444.467 33.3359C444.59 33.8706 444.416 34.3522 444.191 34.7109L444.168 34.7461C442.729 36.849 441.569 39.06 440.686 41.3789C439.842 43.686 439.361 45.4513 439.204 46.7051L439.196 46.7656L439.182 46.8242C439.144 46.9752 439.126 47.1219 439.126 47.2656V47.8643C439.126 48.9183 439.316 49.531 439.544 49.8564C439.726 50.1168 439.994 50.285 440.521 50.2852C441.038 50.2852 441.955 49.9433 443.357 48.9336C444.738 47.9393 446.157 46.7454 447.61 45.3477C449.079 43.9352 450.403 42.582 451.584 41.2891L451.585 41.2881C451.885 40.9603 452.16 40.6535 452.41 40.3701C452.505 40.1243 452.62 39.8847 452.759 39.6533L452.789 39.6016L452.826 39.5537C454.016 38.0241 454.919 36.8391 455.537 35.9961C456.151 35.1026 456.647 34.3308 457.028 33.6777L457.034 33.667L457.04 33.6572C457.46 32.9754 457.882 32.212 458.308 31.3672C458.435 30.7183 458.634 29.9578 458.904 29.0938L458.913 29.0674L458.923 29.041C459.166 28.392 459.584 27.8606 460.183 27.5059C460.765 27.1605 461.449 27.0235 462.168 27.0234C463.091 27.0234 463.915 27.1166 464.543 27.3799C464.867 27.5158 465.19 27.7188 465.436 28.0273C465.693 28.3514 465.819 28.7351 465.819 29.1357C465.819 29.5266 465.722 29.9117 465.576 30.2764L465.561 30.3154L465.542 30.3525C465.443 30.5513 465.34 30.7819 465.234 31.0459L465.228 31.0635L465.22 31.0811C464.542 32.6063 463.805 34.3619 463.011 36.3486C462.383 37.9189 461.791 39.4187 461.234 40.8467C462.305 39.61 463.483 38.3002 464.771 36.9199L464.772 36.9189C466.444 35.1322 468.146 33.4585 469.878 31.8994C471.672 30.2792 473.365 28.9357 474.954 27.876C476.554 26.8093 478.066 26.1691 479.442 26.1689C480.286 26.1689 481.093 26.4125 481.667 27.0615C482.221 27.6873 482.409 28.5254 482.409 29.3926C482.409 30.7604 481.875 32.4019 480.947 34.2617C480.65 34.8978 480.275 35.7091 479.819 36.6943C481.106 35.5871 482.447 34.5593 483.841 33.6113L483.848 33.6055L483.855 33.6006C485.371 32.6096 486.799 31.8606 488.136 31.3711C488.482 31.2326 489.101 31.0491 489.936 30.8262C490.839 30.5277 491.681 30.3594 492.441 30.3594C492.948 30.3594 493.504 30.4383 493.958 30.7412C494.484 31.0918 494.724 31.6377 494.725 32.2139C494.725 32.9198 494.388 33.5467 493.941 34.0781C493.008 35.5088 492.154 37.0518 491.381 38.709C490.657 40.3258 490.076 41.851 489.635 43.2842C489.186 44.7428 488.919 45.8765 488.815 46.7051L488.809 46.7656L488.794 46.8242C488.756 46.9753 488.738 47.1219 488.738 47.2656V47.8643C488.738 48.9278 488.916 49.5529 489.132 49.8848C489.299 50.1419 489.523 50.285 489.961 50.2852C490.561 50.2852 491.52 49.9456 492.905 49.0039C494.279 48.0127 495.69 46.8231 497.136 45.4326C498.604 43.9644 499.929 42.5832 501.11 41.2891L501.111 41.2881C502.363 39.9228 503.172 38.9448 503.582 38.3301L503.637 38.248L503.707 38.1777C503.987 37.8978 504.397 37.6281 504.927 37.6279C505.409 37.6279 505.875 37.8184 506.197 38.2314C506.403 38.4571 506.542 38.7387 506.582 39.0596C506.623 39.3885 506.554 39.6916 506.454 39.9404L506.435 39.9893L506.409 40.0371C505.847 41.0997 504.909 42.388 503.64 43.8887C502.417 45.3444 501.025 46.825 499.464 48.3281H499.463C497.952 49.7808 496.462 51.0387 494.992 52.0967L494.991 52.0957C494.152 52.7357 493.123 53.2591 491.927 53.6787C490.739 54.1718 489.512 54.4229 488.251 54.4229C487.071 54.4228 485.966 54.1589 484.958 53.6211L484.933 53.6074C483.839 52.9822 483.122 51.8672 482.68 50.4766V50.4756C482.466 49.8273 482.376 49.0594 482.376 48.2061C482.376 46.864 482.559 45.3664 482.912 43.7207C483.26 42.0957 483.642 40.7069 484.062 39.5654C484.344 38.7775 484.703 37.9198 485.135 36.9932C484.412 37.4434 483.695 37.9574 482.987 38.543C481.361 39.8887 479.879 41.2601 478.54 42.6553C477.294 43.9551 476.224 45.0509 475.333 45.9443C474.995 46.7134 474.41 47.3163 473.65 47.7666C472.911 48.2371 472.128 48.5224 471.318 48.5225C470.769 48.5224 470.17 48.4062 469.701 48C469.205 47.57 469.035 46.9751 469.035 46.4102C469.035 45.9379 469.174 45.4549 469.373 44.9902C469.949 43.6077 470.582 42.1976 471.271 40.7607L471.275 40.7539L471.279 40.7461C472.018 39.2684 472.671 37.9342 473.237 36.7441L473.246 36.7275L473.255 36.71C473.882 35.5126 474.305 34.6936 474.528 34.2471L474.541 34.2227L474.555 34.1982C474.773 33.8158 474.91 33.5157 474.993 33.2891C474.738 33.3953 474.419 33.5531 474.032 33.7705C473.216 34.2299 472.083 35.0822 470.62 36.376C469.474 37.4132 468.199 38.7975 466.795 40.5391L466.789 40.5449L466.784 40.5508C465.374 42.2426 464.021 43.9918 462.724 45.7969C461.407 47.6287 460.229 49.2083 459.192 50.5332C458.706 51.1906 458.278 51.73 457.912 52.1416C457.565 52.5321 457.202 52.8919 456.849 53.0938L456.824 53.1074L456.8 53.1201C456.412 53.314 455.691 53.6116 454.68 54.0049L454.681 54.0059C453.69 54.4136 452.796 54.6797 452.076 54.6797C451.788 54.6796 451.186 54.6322 450.813 54.1113C450.421 53.5615 450.612 52.9597 450.729 52.6865L450.752 52.6348L450.78 52.585C450.955 52.2788 451.325 51.3739 451.904 49.751L451.908 49.7422L451.911 49.7334C452.515 48.1416 453.173 46.277 453.888 44.1396C452.702 45.5391 451.385 46.9358 449.937 48.3281C448.426 49.7807 446.936 51.0387 445.467 52.0967L445.466 52.0957C444.624 52.7377 443.592 53.2623 442.391 53.6826L442.39 53.6816C441.154 54.1704 439.902 54.4228 438.64 54.4229C437.506 54.4228 436.432 54.1543 435.433 53.6211L435.419 53.6143L435.407 53.6074C434.313 52.9822 433.597 51.8671 433.154 50.4766V50.4756C432.937 49.8164 432.851 48.9851 432.851 48.0352C432.851 46.6921 433.034 45.2211 433.388 43.6279C433.402 43.5648 433.416 43.5019 433.43 43.4395C432.932 43.9987 432.379 44.6157 431.769 45.2871L431.768 45.2861C430.661 46.5091 429.414 47.7576 428.026 49.0293L428.025 49.0303C426.662 50.2747 425.232 51.3186 423.734 52.1572C422.189 53.0226 420.625 53.4824 419.056 53.4824C417.954 53.4824 416.831 53.1723 415.701 52.6074L415.682 52.5977L415.662 52.5869C414.524 51.9543 413.582 51.1493 412.861 50.166V50.165C412.263 49.3648 411.835 48.5276 411.599 47.6572C411.317 47.9366 411.03 48.2179 410.738 48.499L410.73 48.5059L410.724 48.5127C409.165 49.9563 407.657 51.2322 406.202 52.3379L406.189 52.3477L406.176 52.3574C404.272 53.7083 402.278 54.4228 400.21 54.4229C397.682 54.4228 395.631 53.7931 394.387 52.2559L394.378 52.2451L394.368 52.2334C393.301 50.833 392.796 49.1264 392.796 47.1797C392.796 45.3916 393.194 43.2076 393.948 40.6543L393.951 40.6436L393.954 40.6338C394.764 38.0882 395.804 35.349 397.068 32.417C398.33 29.4921 399.678 26.5958 401.111 23.7285L401.114 23.7217C402.605 20.7979 404.07 18.127 405.508 15.7109L405.511 15.7051C407.001 13.2408 408.301 11.2464 409.408 9.73145L409.413 9.72363L409.419 9.7168C410.517 8.27137 411.702 6.82691 412.971 5.38477C414.285 3.89074 415.755 2.62989 417.379 1.60742C419.088 0.531123 421.015 4.52586e-05 423.129 0ZM199.243 54.3525C199.232 54.4008 199.222 54.4489 199.214 54.4971C199.222 54.449 199.232 54.4008 199.243 54.3525ZM199.262 54.2725C199.259 54.2826 199.256 54.2926 199.254 54.3027C199.271 54.2348 199.291 54.1669 199.313 54.0986L199.262 54.2725ZM11.1758 54.0742C11.214 54.0982 11.2554 54.1214 11.2998 54.1445L11.1758 54.0732C11.1375 54.0492 11.1023 54.0249 11.0703 54L11.1758 54.0742ZM451.92 53.6699L452.076 53.6797C451.967 53.6796 451.877 53.6664 451.804 53.6436C451.839 53.6544 451.877 53.6642 451.92 53.6699ZM147.522 53.4121L147.902 53.4229C147.655 53.4228 147.414 53.4084 147.18 53.3818C147.292 53.3946 147.407 53.4055 147.522 53.4121ZM438.278 53.4121L438.64 53.4229C438.406 53.4228 438.176 53.4083 437.949 53.3818C438.058 53.3946 438.168 53.4055 438.278 53.4121ZM451.582 53.3135C451.581 53.3194 451.581 53.3253 451.581 53.3311C451.584 53.2968 451.589 53.26 451.6 53.2207L451.582 53.3135ZM150.04 53.1553H150.041C150.184 53.1196 150.326 53.0809 150.469 53.0381H150.468C150.325 53.0808 150.183 53.1196 150.04 53.1553ZM213.881 53.0811L214.509 52.6953C214.523 52.6863 214.537 52.677 214.551 52.668C214.333 52.8074 214.11 52.9453 213.881 53.0811ZM247.9 52.8799C247.904 52.8817 247.908 52.883 247.912 52.8848C247.813 52.8388 247.714 52.7902 247.616 52.7383L247.9 52.8799ZM183.534 52.6162C183.597 52.6596 183.662 52.7006 183.728 52.7383C183.762 52.7567 183.798 52.7724 183.833 52.79C183.798 52.7725 183.763 52.7566 183.729 52.7383C183.662 52.7004 183.598 52.6597 183.534 52.6162ZM228.131 52.6162C228.194 52.6596 228.258 52.7006 228.324 52.7383C228.359 52.7567 228.395 52.7724 228.43 52.79C228.395 52.7725 228.36 52.7566 228.325 52.7383C228.259 52.7004 228.194 52.6597 228.131 52.6162ZM200.284 52.502H200.285H200.284ZM90.249 52.4697L90.5938 52.4824V52.4814C90.3718 52.4814 90.1466 52.4659 89.918 52.4355C90.0291 52.4503 90.1394 52.4621 90.249 52.4697ZM130.96 52.4697L131.312 52.4824C131.09 52.4824 130.856 52.465 130.61 52.4346C130.73 52.4493 130.846 52.4621 130.96 52.4697ZM346.773 52.3115C347.019 52.3115 347.265 52.3084 347.51 52.3018L347.53 52.3008L346.773 52.3115ZM416.483 51.8721C416.495 51.8772 416.506 51.8817 416.518 51.8867C416.395 51.8323 416.272 51.7748 416.148 51.7129L416.483 51.8721ZM154.146 51.2852L154.614 50.9414C154.634 50.927 154.653 50.912 154.672 50.8975C154.496 51.0296 154.321 51.1591 154.146 51.2852ZM173.416 51.2852L173.885 50.9414L173.934 50.9033C173.761 51.0335 173.588 51.1611 173.416 51.2852ZM417.926 51.0234C417.874 51.0267 417.823 51.0273 417.772 51.0273L417.773 51.0283C417.823 51.0283 417.874 51.0269 417.926 51.0234ZM202.479 50.6875C202.467 50.6944 202.456 50.702 202.444 50.709C202.551 50.6445 202.658 50.5817 202.768 50.5215L202.479 50.6875ZM148.041 50.5332C148.054 50.5496 148.067 50.5652 148.08 50.5811C148.041 50.5329 148.003 50.4828 147.967 50.4297L148.041 50.5332ZM438.803 50.5332C438.816 50.5494 438.83 50.5644 438.843 50.5801C438.802 50.5321 438.763 50.4826 438.726 50.4297L438.803 50.5332ZM181.932 50.1729C181.974 50.3067 182.02 50.4357 182.067 50.5605C182.02 50.4359 181.975 50.3066 181.933 50.1729C181.876 50.0019 181.818 49.8311 181.761 49.6602L181.932 50.1729ZM226.528 50.1729C226.571 50.3067 226.617 50.4357 226.664 50.5605C226.617 50.4359 226.572 50.3066 226.529 50.1729C226.472 50.0019 226.414 49.8311 226.357 49.6602L226.528 50.1729ZM460.052 47.7568C459.467 48.5409 458.918 49.2612 458.405 49.917C458.662 49.5892 458.928 49.2456 459.202 48.8857C459.477 48.5259 459.76 48.1498 460.052 47.7578V47.7568ZM356.976 50.3828C357.083 50.3411 357.19 50.298 357.297 50.2549C357.19 50.298 357.083 50.341 356.976 50.3828ZM14.6123 50.1973C14.6155 50.226 14.6207 50.2539 14.625 50.2812C14.6142 50.2122 14.6056 50.1391 14.6016 50.0615L14.6123 50.1973ZM136.523 50.2393C136.654 50.1268 136.783 50.0111 136.911 49.8936C136.783 50.0111 136.654 50.1267 136.523 50.2393ZM172.475 49.8311C172.303 49.9475 172.136 50.0567 171.972 50.1592C172.136 50.0566 172.304 49.9476 172.476 49.8311C172.541 49.7842 172.605 49.7352 172.67 49.6875C172.605 49.7353 172.54 49.7841 172.475 49.8311ZM357.584 50.1377C357.65 50.1104 357.716 50.0845 357.782 50.0566C357.822 50.0399 357.86 50.0208 357.899 50.0039C357.794 50.049 357.689 50.0939 357.584 50.1377ZM19.6426 49.5752V50.0879H19.6436V49.5742L19.6426 49.5752ZM84.9775 49.2529C85.05 49.3602 85.126 49.4675 85.2061 49.5742C85.2846 49.6813 85.3664 49.7861 85.4512 49.8887L85.207 49.5742C85.1269 49.4673 85.0503 49.3603 84.9775 49.2529ZM358.489 49.7451C358.418 49.7777 358.345 49.8089 358.273 49.8408C358.345 49.8089 358.418 49.7786 358.489 49.7461C358.724 49.6357 358.959 49.5237 359.192 49.4102C359.282 49.3668 359.37 49.3221 359.459 49.2783C359.137 49.4366 358.814 49.5926 358.489 49.7451ZM137.378 49.4482C137.256 49.5697 137.132 49.6881 137.007 49.8047C137.114 49.7046 137.221 49.6036 137.326 49.5L137.378 49.4482ZM162.469 49.0615V49.6602H162.47V49.0615C162.47 48.9256 162.473 48.7856 162.48 48.6416C162.473 48.7856 162.469 48.9256 162.469 49.0615ZM335.143 48.8623C335.418 49.0673 335.7 49.2631 335.99 49.4502L335.562 49.1631C335.387 49.042 335.216 48.917 335.047 48.7891C335.079 48.8133 335.11 48.8383 335.143 48.8623ZM137.427 49.3984C137.538 49.2868 137.649 49.1733 137.758 49.0576C137.649 49.1733 137.538 49.2867 137.427 49.3984ZM483.376 48.2061C483.376 48.3943 483.382 48.5747 483.392 48.7471C483.382 48.5746 483.377 48.3943 483.377 48.2061C483.377 48.0521 483.38 47.8955 483.385 47.7363C483.38 47.8955 483.376 48.0521 483.376 48.2061ZM359.647 49.1836C359.961 49.0278 360.274 48.8715 360.585 48.71C360.274 48.8715 359.961 49.028 359.647 49.1836ZM374.139 48.8047C373.797 48.9151 373.456 49.028 373.117 49.1426L374.14 48.8047C374.339 48.2633 374.534 47.7198 374.727 47.1748C374.534 47.7198 374.338 48.2632 374.139 48.8047ZM137.816 48.9951C137.942 48.861 138.065 48.7244 138.188 48.585C138.065 48.7244 137.942 48.861 137.816 48.9951ZM143.027 48.0352C143.027 48.1768 143.031 48.3184 143.039 48.46L143.028 48.0352C143.028 47.8668 143.031 47.696 143.036 47.5225C143.031 47.6959 143.027 47.8668 143.027 48.0352ZM61.9365 48.8721C61.9367 48.874 61.9373 48.876 61.9375 48.8779C61.9369 48.8708 61.9361 48.8636 61.9355 48.8564L61.9365 48.8721ZM334.058 47.9707C334.364 48.247 334.681 48.5103 335.01 48.7607C334.681 48.5102 334.364 48.2471 334.058 47.9707ZM127.559 48.1406C127.56 48.1732 127.564 48.2053 127.566 48.2373C127.564 48.1983 127.56 48.159 127.558 48.1191L127.559 48.1406ZM393.815 47.8096C393.822 47.9139 393.832 48.017 393.842 48.1191C393.822 47.9195 393.808 47.7157 393.801 47.5078L393.815 47.8096ZM214.274 47.9717L214.275 47.9707C214.376 47.8212 214.473 47.672 214.565 47.5225H214.564C214.472 47.6722 214.375 47.822 214.274 47.9717ZM284.261 47.9668C284.362 47.901 284.462 47.8336 284.562 47.7666C284.462 47.8335 284.362 47.901 284.261 47.9668ZM333.957 47.8809C333.983 47.905 334.011 47.9282 334.037 47.9521C333.902 47.8293 333.769 47.7031 333.638 47.5752C333.743 47.6781 333.849 47.7812 333.957 47.8809ZM387.138 47.3506C387.138 47.4747 387.126 47.579 387.103 47.6631C387.114 47.6224 387.123 47.5773 387.129 47.5273L387.138 47.3516V47.3506ZM284.872 47.5537C284.928 47.5145 284.985 47.4762 285.04 47.4365C284.985 47.4761 284.928 47.5145 284.872 47.5537ZM333.207 47.1377C333.326 47.263 333.445 47.387 333.567 47.5078C333.445 47.387 333.326 47.263 333.207 47.1377ZM124.398 46.6562C124.406 46.8037 124.419 46.9482 124.435 47.0898C124.418 46.9336 124.405 46.7737 124.396 46.6104L124.398 46.6562ZM285.521 47.0811C285.573 47.0412 285.624 47.0002 285.676 46.96C285.624 47.0002 285.573 47.0412 285.521 47.0811ZM332.741 46.623C332.859 46.7591 332.978 46.8931 333.1 47.0244C332.978 46.8932 332.859 46.7591 332.741 46.623ZM470.039 46.3008C470.036 46.3381 470.035 46.3746 470.035 46.4102C470.035 46.4558 470.037 46.5001 470.04 46.543L470.036 46.4102C470.036 46.3389 470.041 46.264 470.052 46.1855L470.039 46.3008ZM245.95 46.5889C245.946 46.6084 245.943 46.628 245.938 46.6475C245.952 46.5819 245.968 46.5159 245.982 46.4492C245.972 46.4962 245.96 46.5425 245.95 46.5889ZM286.149 46.5811C286.138 46.591 286.125 46.6005 286.113 46.6104C286.125 46.6003 286.138 46.5911 286.15 46.5811C286.366 46.4056 286.58 46.2243 286.796 46.04C286.58 46.2245 286.365 46.4055 286.149 46.5811ZM182.53 44.7852C182.434 45.1056 182.348 45.4163 182.27 45.7168C182.348 45.4162 182.435 45.1057 182.531 44.7852C182.595 44.5714 182.661 44.3585 182.729 44.1465L182.53 44.7852ZM227.127 44.7852C227.031 45.1056 226.944 45.4163 226.866 45.7168C226.945 45.4162 227.032 45.1057 227.128 44.7852C227.192 44.5714 227.258 44.3585 227.325 44.1465L227.127 44.7852ZM21.0342 46.5596C21.0072 46.5618 20.9798 46.5649 20.9521 46.5703H20.9531C20.9868 46.5638 21.02 46.5604 21.0527 46.5586C21.0466 46.559 21.0404 46.5591 21.0342 46.5596ZM332.358 46.1621C332.465 46.2958 332.573 46.4282 332.684 46.5576C332.573 46.4282 332.465 46.2958 332.358 46.1621ZM246.101 45.9453C246.093 45.976 246.086 46.0066 246.078 46.0371C246.086 46.0066 246.093 45.976 246.101 45.9453ZM331.321 44.6846C331.499 44.9847 331.689 45.2754 331.893 45.5557C331.996 45.6983 332.102 45.8384 332.209 45.9766C332.225 45.9971 332.242 46.0167 332.258 46.0371C332.134 45.8791 332.012 45.7185 331.894 45.5547C331.69 45.2745 331.499 44.9846 331.321 44.6846ZM286.942 45.9141C287.128 45.7538 287.314 45.5906 287.499 45.4238C287.314 45.5906 287.128 45.7538 286.942 45.9141ZM287.668 45.2705C287.762 45.1845 287.858 45.0984 287.952 45.0107C287.858 45.0984 287.763 45.1846 287.668 45.2705ZM105.709 44.8027C105.693 44.8905 105.677 44.9777 105.662 45.0645C105.677 44.9777 105.693 44.8905 105.709 44.8027ZM288.639 44.3564C288.51 44.4814 288.382 44.6047 288.253 44.7266C288.382 44.6048 288.51 44.4814 288.639 44.3564ZM105.781 44.415C105.766 44.4924 105.753 44.5698 105.738 44.6465C105.788 44.3837 105.842 44.1163 105.902 43.8447L105.781 44.415ZM88.7139 44.5439C88.707 44.5571 88.7012 44.5708 88.6943 44.584C88.7535 44.4695 88.8146 44.354 88.8789 44.2383L88.7139 44.5439ZM417.176 44.5439C417.174 44.5481 417.172 44.5525 417.17 44.5566C417.225 44.4511 417.282 44.3449 417.341 44.2383L417.176 44.5439ZM434.363 43.8447C434.321 44.037 434.281 44.2272 434.243 44.415C434.281 44.2272 434.322 44.0371 434.364 43.8447C434.407 43.6524 434.45 43.4635 434.493 43.2783C434.45 43.4635 434.406 43.6524 434.363 43.8447ZM224.935 44.3477L225.075 44.3584L225.175 44.3525C225.142 44.3558 225.109 44.3574 225.075 44.3574C224.981 44.3574 224.898 44.3438 224.826 44.3184C224.86 44.3303 224.896 44.3413 224.935 44.3477ZM288.99 44.0127C289.037 43.9667 289.082 43.9194 289.128 43.873C289.082 43.9194 289.037 43.9667 288.99 44.0127ZM224.505 43.9404C224.506 43.9455 224.508 43.9501 224.51 43.9551C224.5 43.9173 224.491 43.8771 224.485 43.834L224.505 43.9404ZM376.362 42.2197C376.191 42.7755 376.017 43.3296 375.839 43.8818L376.363 42.2197L378.415 35.3789L376.362 42.2197ZM289.476 43.5225C289.637 43.3567 289.799 43.1883 289.961 43.0176C289.799 43.1883 289.637 43.3567 289.476 43.5225ZM432.161 39.9531C431.89 40.2381 431.684 40.4522 431.541 40.5947C431.284 40.8513 430.942 41.1862 430.515 41.5996C430.087 42.0129 429.574 42.5052 428.976 43.0752H428.977C430.174 41.935 431.029 41.1078 431.542 40.5947C431.827 40.3096 432.369 39.7396 433.167 38.8848H433.166C432.767 39.3122 432.432 39.6681 432.161 39.9531ZM161.585 41.9639C161.303 42.2722 161.012 42.5838 160.712 42.8984C161.013 42.5836 161.304 42.2724 161.586 41.9639C161.623 41.9231 161.659 41.881 161.695 41.8408L161.585 41.9639ZM290.099 42.873C290.314 42.6436 290.53 42.4101 290.746 42.1719C290.53 42.4101 290.314 42.6436 290.099 42.873ZM67.5342 42.8477L67.9863 42.7764C67.9981 42.7743 68.0097 42.7716 68.0215 42.7695C67.8543 42.7992 67.6919 42.8258 67.5342 42.8477ZM65.7646 42.2197C65.7646 42.2227 65.7656 42.2256 65.7656 42.2285C65.7656 42.2257 65.7656 42.2226 65.7656 42.2197C65.7656 42.1844 65.7684 42.1511 65.7754 42.1201C65.7683 42.1511 65.7647 42.1844 65.7646 42.2197ZM52.3115 41.9639L52.3037 41.5352C52.3034 41.5277 52.303 41.5202 52.3027 41.5127C52.3088 41.6624 52.3115 41.8128 52.3115 41.9639ZM66.167 41.8154C66.1624 41.8163 66.1579 41.8174 66.1533 41.8184C66.1952 41.8098 66.2404 41.8032 66.2891 41.7988L66.167 41.8154ZM181.142 41.6455L182.317 40.1465C182.446 39.9818 182.571 39.8181 182.696 39.6572C182.203 40.2902 181.685 40.953 181.142 41.6455ZM464.958 41.2041C464.878 41.304 464.799 41.4047 464.719 41.5049C464.972 41.1865 465.227 40.8693 465.484 40.5547L464.958 41.2041ZM484.775 40.5605C484.85 40.3346 484.926 40.1183 485.002 39.9111H485.001C484.951 40.0465 484.902 40.1858 484.853 40.3291C484.827 40.4051 484.801 40.4823 484.775 40.5605ZM79.5332 30.3066C79.1709 30.3067 78.7569 30.3866 78.2842 30.5752C77.8046 30.7877 77.3816 30.958 77.0215 31.082C75.4813 31.8315 73.7424 33.0219 71.8037 34.6836L71.7969 34.6895L71.791 34.6943C69.8526 36.3005 68.0775 38.1306 66.4668 40.1855C66.299 40.4014 66.1367 40.6172 65.9805 40.833C66.1185 40.8067 66.2527 40.7979 66.374 40.7949C67.5321 40.6965 69.0909 40.1491 71.0869 39.041L71.8525 38.5986C73.6059 37.5661 75.1581 36.5167 76.5127 35.4531C77.1411 34.9276 77.8981 34.1738 78.7861 33.1748L78.7959 33.1631L78.8066 33.1523C79.6797 32.2279 79.9873 31.4636 79.9873 30.8457C79.9873 30.4732 79.8979 30.3794 79.8965 30.3779C79.8935 30.3747 79.8806 30.3611 79.8369 30.3457C79.7855 30.3276 79.6898 30.3066 79.5332 30.3066ZM476.794 40.5918C476.793 40.5928 476.793 40.5937 476.792 40.5947C476.855 40.5387 476.919 40.4834 476.983 40.4268C476.92 40.4826 476.856 40.5366 476.794 40.5918ZM144.822 39.1426C144.766 39.2845 144.71 39.4313 144.654 39.582C144.71 39.4307 144.767 39.284 144.824 39.1416L144.822 39.1426ZM268.19 37.2598C268.14 37.316 268.092 37.3738 268.042 37.4297C268.092 37.3737 268.141 37.3161 268.191 37.2598C268.384 37.046 268.58 36.833 268.78 36.6211L268.19 37.2598ZM17.168 36.7891C17.0833 36.9564 17.0004 37.1246 16.916 37.292C17.3094 36.5119 17.7044 35.7312 18.1035 34.9512L17.168 36.7891ZM77.1387 36.2334C76.8393 36.4686 76.5313 36.7033 76.2139 36.9365L76.6836 36.5859C76.838 36.4688 76.9899 36.3511 77.1396 36.2334C77.225 36.1623 77.3115 36.087 77.4004 36.0088C77.3114 36.0871 77.2241 36.1622 77.1387 36.2334ZM145.422 36.0625C145.265 36.3048 145.091 36.5685 144.898 36.8535L145.423 36.0625C145.494 35.9629 145.566 35.8596 145.639 35.7529L145.422 36.0625ZM127.994 35.707C127.978 35.7321 127.962 35.7571 127.946 35.7822C128.068 35.5888 128.192 35.3969 128.318 35.207L127.994 35.707ZM484.402 34.4375C484.18 34.5888 483.959 34.7429 483.739 34.8984C483.959 34.7428 484.181 34.589 484.403 34.4375C484.578 34.3232 484.751 34.2126 484.923 34.1055C484.751 34.2127 484.577 34.3231 484.402 34.4375ZM49.917 35.207L49.6426 34.8477C49.5939 34.7854 49.5438 34.724 49.4941 34.6621C49.6385 34.8424 49.7796 35.0239 49.917 35.207ZM397.142 34.8242C397.132 34.8489 397.122 34.8738 397.112 34.8984C397.247 34.5663 397.385 34.2312 397.526 33.8936L397.142 34.8242ZM134.22 34.3525C134.087 34.4923 133.954 34.6356 133.821 34.7822L134.22 34.3525ZM49.4424 34.5986C49.3047 34.4282 49.165 34.2581 49.0215 34.0898C49.165 34.2581 49.3048 34.428 49.4424 34.5986ZM79.5332 33.8389C79.3053 34.0952 79.0847 34.3375 78.8711 34.5654C79.0848 34.3375 79.3063 34.0953 79.5342 33.8389C79.647 33.7194 79.7529 33.6001 79.8525 33.4814C79.7528 33.6002 79.6461 33.7193 79.5332 33.8389ZM38.7988 32.2998C39.5684 32.9554 40.3026 33.6327 41.001 34.3311H41.002C40.3035 33.6326 39.5695 32.9555 38.7998 32.2998H38.7988ZM423.983 4.30859C423.508 4.30883 422.728 4.58161 421.583 5.39746C418.604 7.71818 415.828 10.7138 413.259 14.3994L413.255 14.4053C410.662 18.0691 408.35 21.9313 406.32 25.9912C404.914 28.8038 403.645 31.5071 402.51 34.0996C403.701 33.1056 404.923 31.9869 406.173 30.7373C408.482 28.3709 410.738 25.8055 412.939 23.04L412.947 23.0303C415.209 20.2593 417.242 17.5198 419.047 14.8125L419.055 14.8008C420.919 12.0888 422.406 9.646 423.521 7.4707L423.527 7.45898L423.533 7.44824C423.853 6.86141 424.039 6.40246 424.125 6.05957L424.135 6.02246L424.146 5.98633C424.295 5.54151 424.352 5.19466 424.352 4.93359C424.352 4.50893 424.259 4.37606 424.245 4.35938C424.242 4.35562 424.237 4.34999 424.214 4.34082C424.184 4.32912 424.114 4.30859 423.983 4.30859ZM186.721 33.9248H186.722V33.7539H186.721V33.9248ZM287.347 33.668C287.359 33.6805 287.374 33.6896 287.387 33.7002C287.374 33.6897 287.36 33.6803 287.348 33.668C287.319 33.6466 287.292 33.6248 287.267 33.6016C287.291 33.6247 287.318 33.6467 287.347 33.668ZM172.24 33.54C172.217 33.5782 172.196 33.6161 172.174 33.6523C172.269 33.4942 172.377 33.3171 172.502 33.123L172.24 33.54ZM167.678 33.6016C167.673 33.6114 167.668 33.6213 167.663 33.6309C167.702 33.5542 167.749 33.4667 167.804 33.3691L167.678 33.6016ZM232.515 31.8721C232.287 32.2996 232.087 32.6708 231.916 32.9844C231.83 33.1269 231.756 33.2551 231.691 33.3691C231.637 33.4667 231.59 33.5542 231.551 33.6309C231.636 33.4645 231.758 33.2491 231.917 32.9844C232.259 32.3572 232.715 31.5012 233.285 30.418H233.283C232.998 30.9594 232.743 31.4444 232.515 31.8721ZM273.578 32.2998C273.065 32.6989 272.568 33.1016 272.087 33.5078H272.088C272.569 33.1016 273.066 32.6989 273.579 32.2998H273.578ZM493.126 33.4971L493.25 33.3486C493.253 33.3444 493.256 33.3401 493.26 33.3359C493.218 33.3893 493.173 33.4429 493.126 33.4971ZM443.406 33.3613C443.391 33.3379 443.373 33.3156 443.354 33.293C443.373 33.3156 443.391 33.3379 443.406 33.3613ZM443.329 33.2656C443.321 33.2567 443.313 33.247 443.305 33.2383C443.298 33.2312 443.29 33.2247 443.282 33.2178C443.299 33.2334 443.314 33.2496 443.329 33.2656ZM443.26 33.1973C443.254 33.1918 443.248 33.1861 443.241 33.1807C443.236 33.1766 443.23 33.1739 443.226 33.1699C443.237 33.1793 443.249 33.1878 443.26 33.1973ZM94.1846 32.7422C94.0021 32.8701 93.8205 32.9997 93.6396 33.1309C93.8205 32.9997 94.0021 32.8701 94.1846 32.7422ZM95.6738 31.7354C95.436 31.8913 95.1963 32.0507 94.9551 32.2139C94.7446 32.3542 94.5355 32.497 94.3271 32.6416C94.5357 32.4968 94.7454 32.3543 94.9561 32.2139C95.1971 32.0508 95.4363 31.8913 95.6738 31.7354ZM287.176 32.043C287.147 32.1286 287.123 32.2128 287.102 32.2949C287.123 32.2128 287.148 32.1286 287.177 32.043C287.192 32.0074 287.204 31.9712 287.218 31.9365C287.204 31.9713 287.191 32.0073 287.176 32.043ZM493.725 32.2139L493.721 32.123C493.721 32.1214 493.72 32.1198 493.72 32.1182C493.723 32.1491 493.725 32.181 493.725 32.2139ZM130.841 31.5518C130.729 31.6888 130.618 31.8325 130.506 31.9805C130.626 31.8217 130.746 31.6689 130.866 31.5225L130.841 31.5518ZM288.972 31.8721L289.139 31.5264C289.141 31.5205 289.144 31.5146 289.146 31.5088C289.096 31.6192 289.038 31.7404 288.972 31.8721ZM424.117 31.7461L424.139 31.7334C424.144 31.73 424.149 31.727 424.154 31.7236C424.142 31.7316 424.129 31.7382 424.117 31.7461ZM137.084 31.4609C137.042 31.5116 136.997 31.5639 136.948 31.6172C136.998 31.5632 137.044 31.5104 137.086 31.459L137.084 31.4609ZM192.536 31.4443L192.66 31.2051C192.663 31.1996 192.665 31.194 192.668 31.1885C192.627 31.2722 192.583 31.3575 192.536 31.4443ZM256.425 31.4443L256.549 31.2051C256.552 31.1996 256.554 31.194 256.557 31.1885C256.515 31.2722 256.472 31.3575 256.425 31.4443ZM80.9541 31.2783C80.9574 31.2558 80.962 31.2335 80.9648 31.2109L80.9658 31.1992C80.9626 31.2256 80.958 31.2519 80.9541 31.2783ZM7.32812 30.333C7.84113 30.504 8.31168 30.6324 8.73926 30.7178C8.95305 30.7605 9.15622 30.7921 9.34863 30.8135C9.44472 30.8241 9.53815 30.8318 9.62891 30.8369L9.34863 30.8125C8.77159 30.7487 8.09839 30.5894 7.3291 30.333H7.32812ZM114.111 30.5898C114.161 30.6112 114.208 30.6274 114.252 30.6387C114.208 30.6274 114.162 30.6111 114.112 30.5898C114.055 30.5044 113.995 30.4231 113.933 30.3457L114.111 30.5898ZM459.929 29.2266C459.904 29.2802 459.88 29.3353 459.858 29.3926C459.787 29.6205 459.722 29.8397 459.661 30.0498C459.612 30.2199 459.567 30.3845 459.525 30.543C459.619 30.1887 459.73 29.8052 459.859 29.3926C459.881 29.3355 459.904 29.2802 459.929 29.2266ZM44.8936 30.2129C45.0115 30.3033 45.1284 30.394 45.2441 30.4854C44.9883 30.2834 44.7269 30.0832 44.46 29.8857L44.8936 30.2129ZM230.291 30.0762C230.325 30.1175 230.361 30.1561 230.397 30.1924L230.292 30.0762C230.256 30.0334 230.224 29.9898 230.196 29.9443C230.224 29.9896 230.256 30.0335 230.291 30.0762ZM132.154 30.1631C132.15 30.166 132.145 30.1688 132.141 30.1719C132.178 30.1471 132.213 30.1273 132.246 30.1113L132.154 30.1631ZM333.233 29.6719C333.206 29.7286 333.181 29.7861 333.154 29.8428C333.186 29.7749 333.217 29.7065 333.25 29.6387L333.233 29.6719ZM428.243 29.2959C428.042 29.4014 427.84 29.5105 427.636 29.6221C428.061 29.3898 428.479 29.1707 428.891 28.9648L428.243 29.2959ZM286.314 29.3164C286.367 29.3226 286.417 29.3314 286.465 29.3438H286.466C286.37 29.3188 286.264 29.3067 286.15 29.3066H286.149C286.207 29.3066 286.262 29.3101 286.314 29.3164ZM464.819 29.1357L464.811 29.0088L464.809 29.0029C464.816 29.0458 464.819 29.09 464.819 29.1357ZM109.056 28.999C108.923 29.0096 108.789 29.0237 108.654 29.0391C108.937 29.0069 109.215 28.9847 109.491 28.9736L109.056 28.999ZM182.063 28.9121H182.064H182.063ZM183.935 28.4512C183.792 28.5082 183.607 28.5674 183.379 28.6279L183.689 28.5381C183.782 28.5088 183.863 28.4796 183.935 28.4512ZM226.15 28.0215C226.142 28.0331 226.135 28.045 226.127 28.0566C226.135 28.045 226.142 28.0331 226.15 28.0215ZM226.266 27.874C226.265 27.8749 226.264 27.8761 226.264 27.877C226.295 27.8405 226.33 27.8041 226.366 27.7676L226.266 27.874ZM231.279 27.6318C231.232 27.6523 231.186 27.6741 231.142 27.6973V27.6982C231.202 27.667 231.264 27.6387 231.329 27.6123C231.313 27.6191 231.296 27.6248 231.279 27.6318ZM231.546 27.5361C231.492 27.5525 231.439 27.5705 231.388 27.5898C231.439 27.5705 231.492 27.5526 231.546 27.5361ZM231.777 27.4766C231.717 27.4894 231.658 27.5035 231.601 27.5195C231.658 27.5035 231.717 27.4895 231.777 27.4766ZM186.158 27.5107L186.152 27.457C186.152 27.4553 186.151 27.4538 186.15 27.4521C186.155 27.4709 186.158 27.4904 186.158 27.5107ZM232.087 27.4248C232.004 27.4346 231.923 27.4471 231.845 27.4619C231.923 27.4469 232.004 27.4346 232.088 27.4248C232.572 27.3678 233.029 27.3181 233.456 27.2754C233.028 27.318 232.572 27.3678 232.087 27.4248ZM103.887 27.4209C103.876 27.4247 103.865 27.4287 103.854 27.4326C104.001 27.3809 104.144 27.333 104.282 27.29L103.887 27.4209ZM434.163 26.9209C433.819 26.99 433.487 27.0727 433.166 27.1689L432.744 27.29C432.606 27.333 432.463 27.3809 432.315 27.4326C432.619 27.3262 432.903 27.2383 433.167 27.1689C433.488 27.0727 433.82 26.99 434.163 26.9209ZM4.16406 26.3721C4.23601 26.4877 4.31279 26.5994 4.39941 26.7041C4.31282 26.5994 4.23593 26.4878 4.16406 26.3721ZM391.071 26.4844C391.157 26.4987 391.238 26.5083 391.312 26.5127C391.238 26.5082 391.158 26.4986 391.072 26.4844C391.069 26.4841 391.065 26.4836 391.062 26.4834C391.065 26.4836 391.068 26.4842 391.071 26.4844ZM227.478 26.3135C227.448 26.372 227.418 26.4296 227.387 26.4863C227.418 26.4295 227.449 26.3721 227.479 26.3135C227.514 26.2422 227.547 26.171 227.578 26.1006L227.478 26.3135ZM382.838 26.4248C382.807 26.4432 382.776 26.4613 382.746 26.4805C382.776 26.4614 382.807 26.4432 382.838 26.4248ZM383.068 26.292C383.049 26.3025 383.029 26.3144 383.01 26.3252C383.043 26.307 383.076 26.2889 383.109 26.2715L383.068 26.292ZM4.03418 26.1426C4.05057 26.1747 4.06659 26.2069 4.08398 26.2383C4.06662 26.2069 4.05055 26.1747 4.03418 26.1426ZM33.1787 26.0977L33.1807 26.1074C33.1722 26.055 33.1654 26.0033 33.1611 25.9521C33.1651 26.0001 33.171 26.0486 33.1787 26.0977ZM3.91309 25.8779C3.92635 25.911 3.94087 25.9433 3.95508 25.9756C3.94088 25.9433 3.92635 25.911 3.91309 25.8779ZM227.846 25.2773C227.832 25.3446 227.817 25.4123 227.799 25.4805C227.817 25.4126 227.832 25.3452 227.846 25.2783V25.2773ZM3.82227 25.6289C3.82301 25.6313 3.82445 25.6334 3.8252 25.6357C3.80924 25.5851 3.79438 25.5336 3.78027 25.4814C3.79372 25.5312 3.807 25.5805 3.82227 25.6289ZM390.922 25.3301C390.957 25.3348 390.992 25.3369 391.024 25.3408C390.893 25.3249 390.74 25.3048 390.564 25.2764L390.922 25.3301ZM227.905 24.6885C227.905 24.7528 227.904 24.8176 227.899 24.8828C227.904 24.8176 227.906 24.7528 227.906 24.6885C227.906 24.6374 227.903 24.5876 227.9 24.5391C227.903 24.5876 227.905 24.6374 227.905 24.6885ZM230.044 24.0049L230.038 23.7881C230.038 23.7851 230.037 23.7822 230.037 23.7793C230.042 23.8531 230.044 23.9286 230.044 24.0049ZM199.324 14.5439C199.606 14.5702 199.927 14.6945 200.16 14.998C200.389 15.2951 200.421 15.6236 200.421 15.8164C200.421 16.1991 200.287 16.6245 200.14 17.0088C199.883 17.677 199.779 18.2078 199.779 18.6172C199.779 18.9298 199.692 19.2497 199.594 19.5273C199.49 19.8225 199.342 20.1547 199.16 20.5176C198.788 21.2617 198.352 21.9495 197.85 22.5771C197.589 22.9025 197.31 23.192 197.009 23.4072C196.71 23.6203 196.323 23.8076 195.871 23.8076C195.079 23.8076 194.262 23.7461 193.421 23.626L193.387 23.6211L193.353 23.6143C192.768 23.4889 192.233 23.2023 191.859 22.6953C191.495 22.201 191.365 21.6063 191.365 21.0117C191.365 20.6624 191.531 20.396 191.597 20.2949C191.687 20.156 191.799 20.0231 191.91 19.9033C192.136 19.6602 192.45 19.3735 192.831 19.0508L192.845 19.0391L192.859 19.0273C193.655 18.402 194.451 17.7767 195.247 17.1514L196.284 16.3311C196.514 16.1527 196.688 16.0222 196.802 15.9424C197.285 15.5454 197.698 15.2288 198.032 15.0059C198.201 14.8933 198.37 14.7907 198.531 14.7129C198.66 14.6508 198.912 14.5382 199.207 14.5381L199.324 14.5439ZM263.095 14.5381C263.401 14.5381 263.781 14.6513 264.048 14.998C264.276 15.2952 264.309 15.6236 264.309 15.8164C264.309 16.1991 264.176 16.6245 264.028 17.0088C263.771 17.6771 263.668 18.2078 263.668 18.6172C263.668 18.9298 263.58 19.2497 263.482 19.5273C263.378 19.8225 263.23 20.1547 263.049 20.5176C262.677 21.2617 262.24 21.9495 261.738 22.5771C261.478 22.9025 261.199 23.192 260.897 23.4072C260.599 23.6203 260.212 23.8076 259.76 23.8076C258.968 23.8076 258.15 23.7461 257.31 23.626L257.275 23.6211L257.241 23.6143C256.657 23.489 256.122 23.2023 255.748 22.6953C255.384 22.201 255.254 21.6063 255.254 21.0117C255.254 20.6624 255.419 20.396 255.484 20.2949C255.575 20.1559 255.687 20.0232 255.799 19.9033C256.025 19.6602 256.338 19.3735 256.72 19.0508L256.733 19.0391L256.748 19.0273C257.544 18.402 258.34 17.7767 259.136 17.1514L260.172 16.3311C260.4 16.1534 260.575 16.0234 260.688 15.9434C261.172 15.5457 261.586 15.229 261.921 15.0059C262.09 14.8932 262.259 14.7907 262.42 14.7129C262.548 14.6508 262.8 14.5383 263.095 14.5381ZM194.009 22.6943C194.039 22.6979 194.07 22.6997 194.101 22.7031C193.923 22.6832 193.743 22.6616 193.562 22.6357L194.009 22.6943ZM257.897 22.6943C257.928 22.698 257.959 22.6996 257.99 22.7031C257.812 22.6831 257.632 22.6616 257.451 22.6357L257.897 22.6943ZM49.1475 22.6357L49.8896 22.3867C49.9038 22.3818 49.9175 22.376 49.9316 22.3711C49.6725 22.4614 49.4112 22.55 49.1475 22.6357ZM238.501 20.3271C238.309 20.7107 238.091 21.1404 237.847 21.6162C238.091 21.1404 238.31 20.7108 238.502 20.3271C238.73 19.9279 238.901 19.621 239.015 19.4072C238.901 19.6211 238.729 19.9279 238.501 20.3271ZM24.8594 21.2676C24.8594 21.3246 24.8567 21.3887 24.8496 21.46C24.8567 21.3888 24.8604 21.3245 24.8604 21.2676C24.8603 21.182 24.8558 21.1 24.8486 21.0215C24.8558 21.0999 24.8594 21.182 24.8594 21.2676ZM262.154 20.0703L262.354 19.6504C262.36 19.6374 262.365 19.6242 262.371 19.6113C262.309 19.7528 262.237 19.9058 262.154 20.0703ZM195.871 17.9326C195.073 18.5596 194.275 19.1874 193.477 19.8145H193.478C194.276 19.1873 195.074 18.5598 195.872 17.9326C196.299 17.5907 196.641 17.3196 196.897 17.1201C196.641 17.3196 196.299 17.5907 195.871 17.9326ZM181.54 18.7021C181.483 18.8021 181.42 18.8949 181.353 18.9805H181.354C181.387 18.9377 181.42 18.8931 181.451 18.8467C181.482 18.8004 181.512 18.752 181.54 18.7021ZM53.9355 17.334C53.6045 17.5369 53.2669 17.7375 52.9219 17.9346C53.2672 17.7375 53.6053 17.537 53.9365 17.334C54.1531 17.2054 54.3616 17.0749 54.5645 16.9463C54.3613 17.075 54.1523 17.2053 53.9355 17.334ZM199.02 17.1895C199.005 17.2376 198.992 17.2857 198.979 17.333C198.995 17.2751 199.012 17.2164 199.03 17.1572L199.02 17.1895ZM262.908 17.1895C262.893 17.2376 262.881 17.2857 262.867 17.333C262.884 17.2751 262.901 17.2164 262.919 17.1572L262.908 17.1895ZM56.2812 15.7295C55.7919 16.1233 55.2386 16.5173 54.6211 16.9111C55.2386 16.5173 55.7918 16.1234 56.2812 15.7295ZM261.299 16.7354C261.256 16.7639 261.192 16.81 261.106 16.874C261.192 16.8098 261.257 16.7639 261.3 16.7354C261.421 16.6357 261.536 16.5423 261.646 16.4551L261.299 16.7354ZM57.0117 15.0996L57.2236 14.8965C57.2356 14.8847 57.2469 14.8722 57.2588 14.8604C57.1789 14.94 57.0968 15.02 57.0117 15.0996ZM28.6221 14.2559L28.2246 14.6826C28.1047 14.814 27.9874 14.9458 27.8721 15.0771C28.1125 14.8033 28.3629 14.5288 28.623 14.2549L28.6221 14.2559ZM57.3105 14.8086C57.3784 14.74 57.4439 14.6711 57.5078 14.6025C57.4439 14.6711 57.3783 14.74 57.3105 14.8086ZM57.5459 14.5615C57.6075 14.4946 57.6667 14.4272 57.7246 14.3604C57.6667 14.4273 57.6075 14.4946 57.5459 14.5615ZM58.2324 13.7285C58.1442 13.8482 58.0513 13.9664 57.9551 14.084C57.8907 14.1656 57.8228 14.2465 57.7529 14.3281C57.823 14.2464 57.8915 14.1657 57.9561 14.084C58.0522 13.9665 58.1445 13.8481 58.2324 13.7285ZM58.7842 12.875L58.918 12.625C58.9358 12.5901 58.9525 12.5546 58.9697 12.5195C58.9113 12.6389 58.8499 12.7575 58.7842 12.875ZM59.1523 12.1172C59.1036 12.2341 59.0503 12.3495 58.9951 12.4648C59.0506 12.3495 59.1046 12.2341 59.1533 12.1172C59.1706 12.0797 59.1848 12.0412 59.2012 12.0039C59.1847 12.0413 59.1697 12.0797 59.1523 12.1172ZM422.424 11.4541C422.235 11.7643 422.039 12.0782 421.839 12.3965H421.84C422.04 12.0784 422.235 11.7642 422.424 11.4541ZM409.365 11.5244C409.217 11.7399 409.066 11.9627 408.912 12.1934H408.913C409.132 11.8651 409.346 11.5526 409.553 11.2549C409.491 11.3436 409.428 11.433 409.365 11.5244ZM410.215 10.3213C410.026 10.5794 409.832 10.853 409.632 11.1406C409.833 10.8529 410.027 10.5795 410.216 10.3213C410.468 9.98901 410.726 9.65747 410.988 9.3252C410.726 9.65756 410.467 9.98891 410.215 10.3213ZM37.1748 10.5781L36.751 10.4443C36.7333 10.4392 36.7156 10.4347 36.6982 10.4297C36.8466 10.4722 37.0055 10.5217 37.1748 10.5781ZM385.257 9.55176L385.328 9.43359L385.337 9.41602C385.312 9.46394 385.285 9.50914 385.257 9.55176ZM416.49 8.75586C416.686 8.54348 416.883 8.3339 417.081 8.12793V8.12695C416.883 8.3331 416.686 8.54302 416.49 8.75586ZM412.125 7.91602C412.083 7.96648 412.042 8.01692 412 8.06738C412.261 7.74976 412.527 7.43188 412.797 7.11426L412.125 7.91602ZM58.3877 7.2334C58.5585 7.39665 58.7121 7.56397 58.8486 7.73535V7.73438C58.7122 7.5632 58.5584 7.39636 58.3877 7.2334ZM18.6152 5.89746C18.484 5.94299 18.3536 5.98814 18.2246 6.03418C18.3536 5.98805 18.484 5.94309 18.6152 5.89746ZM19.2969 5.66504C19.2548 5.67899 19.2128 5.69303 19.1709 5.70703C19.2354 5.68545 19.3002 5.66404 19.3652 5.64258C19.3424 5.65011 19.3196 5.6575 19.2969 5.66504ZM425.347 4.73633C425.35 4.79995 425.352 4.86572 425.352 4.93359C425.352 5.03351 425.347 5.13704 425.336 5.24414C425.347 5.13712 425.353 5.03347 425.353 4.93359C425.353 4.8657 425.351 4.79995 425.347 4.73633ZM21.4561 4.96875C21.0469 5.09675 20.642 5.22774 20.2412 5.36133C20.2102 5.37098 20.1793 5.38094 20.1484 5.39062C20.1796 5.38086 20.2109 5.37107 20.2422 5.36133C21.0439 5.0941 21.8622 4.83771 22.6973 4.59277L21.4561 4.96875ZM28.4512 3.1377C28.0878 3.21608 27.7272 3.29684 27.3691 3.37891L28.4521 3.1377C28.8225 3.05936 29.1932 2.98307 29.5645 2.90918C29.193 2.9831 28.8217 3.05931 28.4512 3.1377ZM416.854 3.17285C416.843 3.18053 416.833 3.18858 416.822 3.19629C416.994 3.07055 417.167 2.94767 417.342 2.82812L416.854 3.17285ZM53.252 1.76953L52.5479 1.62793C52.5258 1.62383 52.5036 1.62027 52.4814 1.61621C52.7431 1.66418 53 1.71506 53.252 1.76953ZM423.768 1.03125C423.736 1.02812 423.704 1.0251 423.672 1.02246C423.704 1.02508 423.736 1.02819 423.768 1.03125ZM340.903 80.5117C340.937 80.5961 340.971 80.6797 341.008 80.7617C340.971 80.6797 340.937 80.5961 340.903 80.5117ZM416.49 8.75586C416.368 8.88848 416.246 9.02206 416.125 9.15723C416.246 9.02223 416.368 8.8883 416.49 8.75586Z" fill="#C24458"/>
</svg>